<?xml version="1.0" encoding="utf-8"?>
<!-- Generator: Adobe Illustrator 17.1.0, SVG Export Plug-In . SVG Version: 6.00 Build 0)  -->
<!DOCTYPE svg PUBLIC "-//W3C//DTD SVG 1.1//EN" "http://www.w3.org/Graphics/SVG/1.1/DTD/svg11.dtd">
<svg version="1.1" id="Layer_1" xmlns="http://www.w3.org/2000/svg" xmlns:xlink="http://www.w3.org/1999/xlink" x="0px" y="0px"
	 viewBox="96 0 230 1080" enable-background="new 96 0 230 1080" xml:space="preserve">
<g>
	<defs>
		<rect id="SVGID_3_" x="96" y="0" width="230" height="1080"/>
	</defs>
	<clipPath id="SVGID_1_">
		<use xlink:href="#SVGID_3_"  overflow="visible"/>
	</clipPath>
	<path clip-path="url(#SVGID_1_)" fill="#FFFFFF" fill-opacity="0.46" d="M373.4,170.4c8.1-17.2,12.7-36.4,12.7-56.7
		C386.1,40.4,326.7-19,253.4-19c-73.3,0-132.7,59.4-132.7,132.7c0,51.3,29.1,95.8,71.7,117.9c-8.2,17.2-12.7,36.4-12.7,56.7
		c0,32.4,11.6,62.1,30.9,85.2c-13,4.9-22.3,17.5-22.3,32.2c0,9.6,3.9,18.3,10.3,24.5c-8.7,6.7-14.3,17.1-14.3,29
		c0,18.6,14,34,32,36.2c-17,13.3-27.9,34-27.9,57.2c0,14.9,4.5,28.8,12.3,40.4c-14.1,4.1-24.4,17.1-24.4,32.5
		c0,7.7,2.5,14.7,6.8,20.4c-25.6,24.2-41.5,58.4-41.5,96.4c0,34.4,13.1,65.7,34.5,89.2c-47.2,23.5-79.6,72.2-79.6,128.4
		c0,79.2,64.2,143.4,143.4,143.4c79.2,0,143.4-64.2,143.4-143.4c0-40.2-16.5-76.4-43.1-102.5c39.9-22.9,66.8-65.9,66.8-115.2
		c0-63.8-45-117-105-129.8c19-13.1,31.5-35,31.5-59.9c0-40.1-32.5-72.6-72.6-72.6c-3.7,0-7.3,0.3-10.9,0.8c4.5-6,7.1-13.5,7.1-21.6
		c0-10.8-4.7-20.5-12.2-27.2c6.7-5.7,11.2-13.8,12-23c16.9,7.7,35.6,12.1,55.4,12.1c73.3,0,132.7-59.4,132.7-132.7
		C445.1,237,416,192.5,373.4,170.4z"/>
	<path clip-path="url(#SVGID_1_)" fill="#FFFFFF" fill-opacity="0.32" d="M308.6,137.7c0,45-36.5,81.5-81.5,81.5
		c-45,0-81.5-36.5-81.5-81.5c0-45,36.5-81.5,81.5-81.5C272.1,56.1,308.6,92.6,308.6,137.7z M298.2,280.7c0,24.7-20.1,44.8-44.8,44.8
		c-24.7,0-44.8-20.1-44.8-44.8s20.1-44.8,44.8-44.8C278.2,235.9,298.2,256,298.2,280.7z M552,688.1c0,71.8-37,134.2-91.5,166.2
		c24.3,26.9,38.9,61.2,38.9,98.6c0,86.5-78.3,156.7-174.9,156.7s-174.9-70.2-174.9-156.7c0-41.4,18-79.1,47.3-107.1
		c-3.6-6.2-5.7-13.2-5.7-20.6c0-19.8,14.5-36.6,34.4-42.4c-14.9-27.8-23.5-60.2-23.5-94.6c0-104.4,78.3-189.1,174.9-189.1
		S552,583.6,552,688.1z"/>
	<path clip-path="url(#SVGID_1_)" fill="#FFFFFF" d="M320,953.3c-0.5,0.3-1.1,0.7-1.6,1c0.5,0.4,1.1,0.7,1.6,1.1V953.3z M320,1166.5
		c-19.3,12.9-42.5,20.5-67.3,20.5c-68,0-123.1-56.4-123.1-126c0-61.5,43.1-112.8,100.1-123.8c-6.3-8.9-9.9-19.5-9.9-30.8
		c0-24.8,17.4-45.9,41.7-54c-14-14.5-22.6-34.3-22.6-56.1c0-28.3,14.5-53.2,36.6-67.7c-5.9-8.5-9.4-18.9-9.4-30
		c0-17.1,8.2-32.3,20.9-42c-6.6-8.8-10.4-19.7-10.4-31.5c0-13,4.7-24.9,12.5-34.1c-10.9-9.6-17.7-23.7-17.7-39.4
		c0-11,3.4-21.1,9.1-29.6c-21.8-23.4-35.1-54.8-35.1-89.2c0-33.2,12.3-63.5,32.7-86.6c-14.5-9.8-24-26.4-24-45.3
		c0-7,1.3-13.6,3.7-19.7c-30.6-15.2-51.7-46.7-51.7-83.2c0-7.7,0.9-15.2,2.7-22.3c-11.2-15.3-17.7-34.2-17.7-54.6
		c0-2.8,0.1-5.5,0.4-8.2C158.4,85.4,137.6,44.1,137.6-2c0-82.9,67.2-150,150-150c43,0,81.7,18.1,109.1,47H1611v1291H320V1166.5z"/>
</g>
</svg>
