<?xml version="1.0" encoding="utf-8"?>
<!-- Generator: Adobe Illustrator 17.1.0, SVG Export Plug-In . SVG Version: 6.00 Build 0)  -->
<!DOCTYPE svg PUBLIC "-//W3C//DTD SVG 1.1//EN" "http://www.w3.org/Graphics/SVG/1.1/DTD/svg11.dtd">
<svg version="1.1" id="Layer_1" xmlns="http://www.w3.org/2000/svg" xmlns:xlink="http://www.w3.org/1999/xlink" x="0px" y="0px"
	 viewBox="0 0 2280 783" enable-background="new 0 0 2280 783" xml:space="preserve">
<g>
	<path fill="#EB1C24" d="M1334.6,398.2c0,60.7,0,121.3,0,182c0,5.9-1.3,11-6.5,14.7c-5.3,3.8-12,4.4-18.8-0.9
		c-10.4-8.1-20.3-16.8-30.4-25.2c-6-4.9-12.2-9.7-18.2-14.6c-6.6-5.3-13.1-10.8-19.6-16.1c-10-8.3-20.1-16.5-30.1-24.8
		c-6.9-5.7-13.8-11.4-20.8-17.1c-9.8-8-19.6-15.9-29.4-23.9c-8.7-7.1-17.3-14.4-25.9-21.5c-7.9-6.5-15.8-12.9-23.7-19.4
		c-8.8-7.2-17.5-14.5-26.4-21.7c-8-6.5-16.2-12.9-24.2-19.5c-8.6-7-17-14.2-25.6-21.2c-7.1-5.8-14.1-11.8-22.8-15.1
		c-9.6-3.6-18,2.3-19.1,13.6c-0.2,2-0.2,4-0.2,6c0,42,0.4,84-0.2,126c-0.2,15.2,11.5,27,27,26.7c28.8-0.7,57.7-0.1,86.5-0.3
		c3.8,0,5.1,0.7,5,4.8c-0.2,26.2-0.2,52.3,0,78.5c0,4-1.2,4.6-4.8,4.5c-36.5-0.2-73,0.5-109.5-0.7c-14.9-0.5-29-6.4-41.8-14.6
		c-22.1-14.1-37-33.5-45.1-58.3c-3.3-10.1-4.4-20.4-4.4-30.8c-0.1-42,0-84-0.1-126c0-19.2,2.1-38.3,8.9-56.3
		c11.2-29.7,32.6-47.9,63.8-54.5c26.6-5.6,51.9-1.2,76.5,9.4c24.3,10.5,45.3,26,65.4,43c16.8,14.2,34.1,27.8,51.1,41.8
		c17.8,14.6,35.6,29.2,53.4,43.8c6.1,5.1,12.2,10.2,18.4,15.2c1,0.8,2.1,2,3.4,1.4c1.4-0.7,0.6-2.4,0.6-3.6c0-65,0-130,0.2-195
		c0-4.5-2.1-4.2-5.1-4.2c-114.2,0-228.3,0-342.5,0c-7,0-7,0-7-7.2c0-25,0.1-50-0.1-75c0-3.9,0.7-5.4,5.1-5.4
		c117.8,0.1,235.7-0.1,353.5,0.1c22.4,0,42.6,7.6,58.8,23.4c13.2,12.9,20.8,28.9,23.3,47.4c1,7.6,1.3,15.2,1.3,22.8
		C1334.5,286.6,1334.5,342.4,1334.6,398.2C1334.5,398.2,1334.5,398.2,1334.6,398.2z"/>
	<path fill="#EB1C24" d="M1925.9,427.5c9.8-6.6,18.5-14.6,27.6-22c38.6-31.5,76.9-63.3,115.7-94.5c22-17.6,46.2-31.4,74-37.7
		c29.9-6.8,58.4-3.5,84.3,14.2c17.3,11.8,26.7,28.9,32.4,48.3c5.1,17.2,6.6,35,6.6,52.9c0,73.2-0.1,146.3,0.1,219.5
		c0,4.6-1.2,5.7-5.8,5.7c-25.2-0.2-50.3-0.2-75.5,0c-4.7,0-6.1-1-6.1-5.9c0.2-77.2,0.1-154.3,0.1-231.5c0-4.7-0.1-9.3-1.7-13.8
		c-2.9-8.1-9.1-11.3-17.3-9c-6,1.7-11.2,5-16,8.9c-48.3,39.6-96.6,79.2-144.9,118.7c-26.5,21.7-53.2,43.3-79.7,65
		c-19.3,15.8-38.6,31.8-57.9,47.7c-4.8,3.9-10.4,5.1-15.9,2.9c-5.2-2.1-8.1-6.5-8.3-12.4c-0.1-2-0.3-4-0.3-6
		c0-117.5,0.1-235,0-352.4c0-19.5,3.6-37.8,14.8-54.3c12.8-18.9,31.1-28.9,53-33.1c7.9-1.5,15.9-1.5,23.8-1.5
		c114.8,0,229.6,0,344.4,0c7.3,0,6.3-0.7,6.3,6.5c0,25.3-0.1,50.7,0.1,76c0,4.2-1.1,5.2-5.2,5.2c-114.5-0.1-229-0.1-343.4-0.2
		c-5,0-6.3,1-6.3,6.2c0.2,63.8,0.1,127.6,0.1,191.5c0,1.8,0.2,3.6,0.3,5.5c0.1,0.2,0.1,0.4,0.2,0.6
		C1925.7,427.9,1925.8,427.7,1925.9,427.5z"/>
	<path fill="#EB1C24" d="M1786.6,411.5c0,65.5,0,131,0.1,196.5c0,4.4-0.9,5.9-5.6,5.8c-25.5-0.3-51-0.3-76.5,0
		c-5.1,0.1-5.8-1.6-5.8-6.1c0.1-118.2,0.1-236.3,0.1-354.5c0-11.6-5.2-19.9-14.8-25.7c-4.1-2.5-8.7-2.9-13.2-2.9
		c-57.3-0.1-114.7-0.2-172,0c-13,0-25.1,10.3-25.3,24.7c-0.2,17,0,34-0.1,51c0,3.3,1.4,3.8,4.2,3.8c17.3-0.1,34.7,0,52,0
		c52.3,0,96.8,35.4,105.8,87c5.1,29.1,5.3,59-8.6,86.5c-16.5,32.7-42.9,52.7-79.3,59c-5.2,0.9-10.5,1.1-15.8,1.1
		c-44.3,0-88.7-0.1-133-0.2c-9.8,0-12.9-3-12.9-13.1c0-20.5,0.3-41-0.1-61.5c-0.2-9,5.2-13.1,13.3-13c40.8,0.2,81.7-0.1,122.5,0.2
		c18.4,0.2,31.7-15.8,27.7-34.4c-3.6-16.4-12.7-24-29.5-24c-43,0-86,0-129,0c-2.8,0-4.9,0.4-4.9-3.9c0.2-57.3,0-114.7,0.4-172
		c0.2-23.8,10.7-43.3,28.1-58.8c15-13.4,33.2-19.9,53.3-19.9c79.2-0.2,158.3-0.5,237.5,0c40.3,0.3,74.2,30.5,80.1,70
		c1,6.5,1.3,12.9,1.3,19.3C1786.5,288.2,1786.5,349.8,1786.6,411.5C1786.5,411.5,1786.5,411.5,1786.6,411.5z"/>
	<g>
		<path fill="#F06522" d="M251.1,762.5c-18.5-5.2-35.7-13.6-52.8-22.4c-20.6-10.6-39.8-23.5-57.9-37.9
			c-14.1-11.2-27.5-23.2-39.6-36.6c-17.9-19.7-34-40.6-47.7-63.6c-11.7-19.6-21.9-39.9-29.6-61.2C15.9,519.9,9.4,498.4,6,476.2
			c-2.2-14.1-3.9-28.1-5.1-42.3C-0.4,420,0,406.1,0.3,392.2c0.2-9.7,1.4-19.6,2.7-29.4c2.6-19.8,6.6-39.3,12.2-58.5
			c7.7-26.2,18.3-51.2,31.2-75.2c2.4-4.4,4.1-9.6,8.6-12.8c-0.1,4.2-2.6,7.5-4.1,11.1c-9.7,24-15.9,49-18.6,74.6
			c-1.6,14.6-2.8,29.3-1.6,44.2c1,12.1,1.6,24.2,3.7,36.1c6.1,35.1,17.9,68.4,36.2,99.2c16.7,28.1,37.4,53,62.4,74
			c20.9,17.7,43.9,32.2,69,43.4c34.7,15.5,71.1,23.6,108.9,25.3c16.1,0.7,32.2-0.6,48.2-2.7c33.8-4.4,65.7-14.8,95.9-30.5
			c1.5-0.8,3.2-1.3,3.3-3.3c10.9-5.4,21.7-11,31.7-18.1c12-8.6,22.7-18.6,32.6-29.7c11.1-12.4,20.2-26.1,27.7-40.8
			c7.9-15.5,13.8-31.8,17.1-49c2.6-13.4,4.8-26.8,4.6-40.5c-0.3-18.2-3.3-36-8.2-53.6c-7.3-26.1-19.7-49.4-35.5-71.1
			c-1.3-1.8-3.7-2.9-3.9-5.6c2.4,0.3,3.6,2.3,5,3.9c3.3,3.7,6.3,7.6,9.6,11.4c15,17.3,27.1,36.5,37.2,57
			c7.3,14.9,13.5,30.3,18.1,46.3c5.3,18.5,9.4,37.3,10.7,56.5c0.8,12.5,1.5,25.1,0.6,37.7c-0.9,13.9-2.1,27.8-4.7,41.4
			c-5.8,30.9-16.5,60.1-31.9,87.5c-16.6,29.6-37.8,55.2-63.3,77.5c-22.2,19.4-46.9,34.8-73.8,46.6c-36.8,16.2-75.4,23.8-115.5,24.2
			c-7.5,0.1-14.9-0.8-22.4-0.9c-4.7-0.1-9.2-0.9-13.8-1.6C270.3,765.5,260.7,764,251.1,762.5z"/>
		<path fill="#F5921E" d="M251.1,762.5c9.6,1.5,19.2,3.1,28.9,4.5c4.6,0.7,9.1,1.5,13.8,1.6c7.5,0.1,14.9,0.9,22.4,0.9
			c40.1-0.4,78.7-8,115.5-24.2c27-11.8,51.6-27.2,73.8-46.6c25.5-22.3,46.7-47.9,63.3-77.5c15.4-27.5,26.1-56.6,31.9-87.5
			c2.6-13.6,3.8-27.5,4.7-41.4c0.8-12.7,0.2-25.3-0.6-37.7c-1.3-19.2-5.4-38-10.7-56.5c-4.6-16-10.8-31.4-18.1-46.3
			c-10.1-20.4-22.2-39.7-37.2-57c-3.2-3.8-6.3-7.7-9.6-11.4c-1.4-1.6-2.6-3.5-5-3.9c-4.9-2.6-6.4-8.2-11.4-11.6
			c10.7-1.1,20.4,0.3,29.9,1.9c21.7,3.6,42.5,10.5,61.8,21.1c26.5,14.4,49.1,33.4,67.9,57.3c21.5,27.3,36.1,57.8,44,91.5
			c5.1,21.6,7,43.5,5.5,65.6c-2,30.4-9.3,59.6-22.9,86.9c-10,20-23.3,38-37.4,55.3c-9.8,12-20.6,23.1-31.8,33.8
			c-29.2,27.9-62.4,49.9-98.8,67.3c-25.3,12-51.7,20.8-78.9,26.7c-14.1,3-28.4,5.4-42.9,6.5c-20.4,1.5-40.8,1.8-61.2,0.7
			c-26.3-1.4-52-6-77.3-13.4C264,767.1,257.4,765.2,251.1,762.5z"/>
		<path fill="#EB1C24" d="M458.1,587.8c-0.2,2-1.9,2.6-3.3,3.3c-30.2,15.7-62.1,26.1-95.9,30.5c-16,2.1-32.1,3.5-48.2,2.7
			c-37.8-1.8-74.2-9.8-108.9-25.3c-25.1-11.2-48-25.8-69-43.4c-25-21.1-45.7-45.9-62.4-74c-18.3-30.8-30-64-36.2-99.2
			c-2.1-11.9-2.7-24-3.7-36.1c-1.2-14.9,0-29.6,1.6-44.2c2.8-25.6,8.9-50.6,18.6-74.6c1.5-3.6,4-7,4.1-11.1
			c0.3-4.8,3.9-7.9,6.3-11.4C71.8,189.2,83.1,174.1,96,160c7.4-8.1,14.8-16.2,22.8-23.6c21.4-19.8,44.7-37.2,70.2-51.4
			c4.1-2.3,8.3-4.5,13.1-6.1c-3.5,6-7,11.9-10.4,17.9c-17.3,29.9-29.6,61.8-38.7,95.1c-5.3,19.3-9.2,39-11.8,58.8
			c-3,22.2-4.3,44.6-3,67c2.6,45.5,11.9,89.6,30.9,131.3c12.5,27.5,28.6,52.6,48.8,75.1c30.7,34.2,67.6,58.7,111.9,71.7
			c11.8,3.5,23.9,5.5,36.2,6.7c26.3,2.7,51.8-0.5,76.7-8.9C447.9,592,453,589.8,458.1,587.8z"/>
		<path fill="#EB1D25" d="M293.1,294.6c0.9-3.8,4.1-6.4,6.5-8.6c12.1-11.3,24.3-22.6,37.8-32.4c15.9-11.6,32.8-21.6,50.6-29.9
			c26.1-12.3,53.3-21.5,81.8-27.3c19.5-3.9,39.2-6.4,59.1-8c28.3-2.3,56.4-0.9,84.6,1.3c0.2,0,0.3,0,0.5,0c8,0.9,7.2,0.8,7.4-7.1
			c0.3-9.9-0.6-19.8-1.2-29.6c-0.7-9.8,0.2-19.8-1.9-29.5c-0.6-2.8,0.1-5.9,0.1-8.9c0.1-2.3,1.8-1.9,3.3-2c15.4-0.7,30.5,1,45.5,4.3
			c27.7,6.1,54,16,79.1,29c9.1,4.7,18.2,9.4,26.4,15.6c12.5,9.4,16.1,28.1,7.5,41.4c-18.2,28.4-36.6,56.6-54.9,84.9
			c-8,12.3-16.1,24.6-23.9,37.1c-1.8,2.9-2.8,2.7-5,0.5c-22.5-22.3-48.8-39.1-77.6-51.9c-19.3-8.6-39.5-15-60.3-18.9
			c-11.7-2.2-23.6-3.9-35.5-5c-16.7-1.5-33.4-2-50.1-1c-32.8,2-65.1,7.4-96.8,16.3c-27.1,7.6-53.5,17.1-79.2,28.6
			c-1.2,0.5-2.5,0.7-3.8,1.1L293.1,294.6z"/>
		<path fill="#F06523" d="M225,345.1c1.8-8.1,3.1-16.4,5.6-24.4c4.4-14.2,9.3-28.3,16.3-41.4c7.6-14.1,16-27.8,25.7-40.7
			c35.9-48,82.4-82.8,135.9-108.8c5.4-2.6,10.8-5.1,16.4-7.4c2.8-1.1,3.5-2.1,1.8-5c-9.8-17.3-18.6-35.1-29-52.1
			c-2.1-3.5-3.4-7.5-5.9-10.8c-1.3-1.7,0.1-2.2,1.2-2.9c34.5-22.4,71.9-37.1,112.5-44.2c21.8-3.8,43.7-5.4,65.8-5.1
			c16.3,0.2,27,10.4,27.6,26.8c0.5,13.9,0.5,27.9,1.3,41.8c0.9,16.4,1.6,32.8,2,49.2c0.4,15.7,1.5,31.5,2.5,47.2
			c0.3,3.9-1,4.5-4.8,4.4c-15.7-0.6-31.3-2.9-47-2.7c-10.6,0.1-21.3-0.3-31.8,0.5c-19,1.5-37.9,3.1-56.7,6.5
			c-25.7,4.7-50.5,11.7-74.6,21.4c-27.3,10.9-52.6,25.4-75.9,43.5c-31.6,24.6-57.3,54.4-78.2,88.4c-1.6,2.7-3.1,5.4-4.7,8.2
			c-1.5,2.7-3.1,5.3-4.6,8C225.9,345.4,225.4,345.2,225,345.1z"/>
		<path fill="#F5921F" d="M184.7,416.3c-2.5-1.2-2.5-3.2-3.1-4.8c-7-20.6-13.3-41.3-17.2-62.7c-2-11-3.4-22.2-4.4-33.4
			c-1.7-18.4-1.3-36.9-0.7-55.2c0.3-11.3,2.5-22.7,4.3-34c2.9-17.8,7.9-34.9,13.8-51.8c4.7-13.7,10.7-27,17.4-40
			c11.1-21.5,24.3-41.6,39.5-60.3c10-12.4,20.8-24.1,32.7-34.7C281.6,26.2,296.9,14,314,4c12.9-7.6,30.4-4.2,37.8,9.4
			c13.1,24.1,26.1,48.2,39.2,72.2c4.6,8.4,9.3,16.8,14.1,25.4c-20.5,7.5-39.4,17.2-57.2,29c-37.2,24.7-68,56.1-93.8,92.3
			c-24.4,34.2-42.9,71.4-55.3,111.6c-6,19.7-10.6,39.7-13,60.2C185.4,408,185.2,412,184.7,416.3z"/>
	</g>
	<g>
		<path d="M1567.4,687c0,7.1-0.2,14.1,0.1,21c0.2,4.1,3.1,6.1,7.1,6.3c4.1,0.2,7.2-1.3,8.2-5.6c0.4-1.4,0.5-2.9,0.7-4.8
			c3.1,0,6.2,0,9.3,0c0,9.3,1,18.7-0.2,27.8c-1.8,13.3-13.4,21.8-26.9,22.2c-10.2,0.3-20.1-0.4-26.7-9.1c-3.3-4.3-6.4-9.8-7-15
			c-1.1-9.7-0.3-19.5-0.3-29.6c3.2,0,6.2,0,9.9,0c0,4.6,0,9.2,0,13.7c0,4.5,0,9,0.2,13.5c0.5,7.5,4.1,13.4,11,15.9
			c7.6,2.8,15.8,3.2,22.9-2c6-4.4,8.1-10.7,7.1-18.6c-1.7,0.1-3.3,0.2-4.9,0.3c-13.1,1.2-21-5.9-21.2-19.1c-0.1-5.6,0-11.2,0-17.1
			c-13.2,0-25.8,0-39,0c0,22.1,0,44.2,0,66.6c-3.6,0-6.7,0-10.2,0c0-22.2,0-44.3,0-66.6c-3.1-0.2-5.7-0.3-8.7-0.4c0-2.8,0-5.5,0-8.5
			c2.8-0.2,5.6-0.5,8.2-0.7c0.5-3.9,0.6-7.6,1.5-11.1c2.9-11.1,13.1-19.7,24.5-19.1c14.6,0.7,29,2.8,43.9,4.4
			c-0.4,3.5-0.7,6.1-1.1,9.2c-9.1-1.1-17.7-2.2-26.4-3.3c-3.8-0.5-7.6-1.1-11.4-1.4c-13.3-1.2-21.6,7.4-20.1,21.1
			c29.7,0,59.4,0,89.4,0c0.1-1.5,0.2-3,0.2-4.5c0.8-14.6,12-26.3,26.5-25.6c14.2,0.6,28.4,2.9,43.1,4.5c-0.4,3.5-0.8,6.2-1.1,9.2
			c-12-1.5-23.5-3.2-35.1-4.3c-4-0.4-8.4-0.4-12.3,0.8c-8.2,2.5-11.9,10.4-10.2,20c50.5,0,101.1,0,151.6,0c1.3-6.7-1.4-10.5-8-10.9
			c-5.8-0.3-11.7,0.1-17.5-0.2c-8.2-0.3-13.8-6.5-13.7-14.8c4.2,0.2,9.3-2.5,11.4,4.2c0.3,0.9,3.2,1.4,4.9,1.5
			c5.3,0.2,10.7-0.2,16,0.3c10.7,0.9,16.5,6.8,18,17.3c0.1,0.8,0.3,1.6,0.5,2.8c39.4,0,78.7,0,118.3,0c0,3.1,0,5.8,0,8.9
			c-2.7,0.1-5.3,0.3-8.5,0.4c0,22.1,0,44.1,0,66.6c-3.8,0-7,0-10.8,0c0-8.3,0-16.6,0-24.9c0-4.3,0.1-8.7-0.1-13
			c-0.2-5.5-4.2-8.9-10-8.8c-5,0-8.8,3.6-9.1,8.7c-0.2,2.6,0,5.3,0,8.2c-3.5,0-6.5,0-10.2,0c0-2.1,0-4,0-6
			c-0.1-6.4-2.5-9.9-7.4-10.8c-6.1-1.1-11.8,1.9-13.5,7.5c-3.4,11.3,1.5,22.4,13.9,20.8c0.8-0.1,1.6,0.1,2.7,0.2c0,2.9,0,5.6,0,8.3
			c-11.7,2.1-21.5-2.4-25.7-11.7c-3.3-7.4-3.1-22.6,5.1-29.1c8.3-6.6,19.9-6.9,30,0.2c6.9-6.3,15.1-6.3,24-3.9c0-4.1,0-7.9,0-12.1
			c-24.7,0-49.4,0-74.7,0c0,22,0,44.1,0,66.5c-3.6,0-6.7,0-10.2,0c0-22.1,0-44,0-66.4c-18.3,0-36.2,0-54.7,0c0,5.3,0,10.6,0,15.9
			c0,9.2,0,18.3,0,27.5c0,9.3,4.2,14.3,12.1,14.5c10,0.3,17.2-5.6,17.8-14.3c0.8-12.1-3.2-16-17.9-17.1c-0.1-1.4-0.2-2.8-0.3-4.2
			c0-1.3,0-2.6,0-3.8c14.6-2.8,27,5.6,28.6,18.9c1.8,15.3-8.6,28.5-23.1,29.4c-3.5,0.2-7.1,0.3-10.5-0.3c-10-1.8-16.9-10.5-17-21.1
			c-0.1-15,0-30,0-45.3c-14.2,0-28,0-43,0c5.7,12,16.1,12.1,26.6,12.8c0,17.8,0,35.6,0,53.7c-3,0-6,0-9.6,0c0-15,0-30,0-45.1
			c-12.7-2.3-23.4-7-27.1-20.8c-5.8,1.6-9.4,5.3-10.5,10.5c-1,4.4-1,9.3-0.2,13.8c0.4,2.1,3.4,4.7,5.7,5.2c2.3,0.5,6.6-0.5,7.4-2.1
			c2.7-5.9,7.2-4.5,12.3-4.2c0,9,1.7,18-2.2,26.5c-4.8,10.4-13,16.1-24.7,16.6c-9,0.3-17.6-0.4-24.7-7.1c-4.9-4.7-8.4-10.2-8.7-16.9
			c-0.5-9.8-0.1-19.6-0.1-29.6c3.2,0,6.3,0,10,0c0,7.8,0,15.4,0,23c0,15.3,7.8,22.6,23.2,21.7c9.9-0.6,16.8-8.5,16.5-18.7
			c-25.3,0.6-33-13.9-20.3-39.3c-14.4,0-28.6,0-43.4,0c0,22.2,0,44.2,0,66.6c-3.6,0-6.5,0-10,0c0-22,0-44,0-66.5
			C1594.2,687,1581,687,1567.4,687z"/>
		<path d="M2271,753.5c-4,0-6.9,0-10.4,0c0-9,0-17.8,0-26.6c0-12.6-8.7-21-21.3-20.4c-8.4,0.4-14,6.7-13.9,15.7
			c0.1,8.3,4.6,12.6,13.7,12.8c0.8,0,1.6,0.1,2.9,0.2c0,2.8,0,5.5,0,8.2c-12,2.7-24.2-4.6-26.4-15.9c-2.8-14.5,6-27.9,19.6-29.7
			c8.9-1.2,17.2,0.2,25,6.2c0-6,0-11.4,0-17.1c-33.4,0-66.7,0-100.4,0c0,11.4,0,22.8,0,35.2c5.1-4.8,10.1-8.9,14.4-13.6
			c3.6-3.9,7.6-4.3,12.2-3.2c7.8,1.9,14,8.5,14.3,16.6c0.4,10.3,0.1,20.6,0.1,31.3c-3.2,0-6.3,0-10.1,0c0-9.1,0.1-18.3-0.1-27.6
			c-0.1-2.6-0.6-5.4-1.8-7.6c-2.5-4.6-5.8-4.9-9.5-1.3c-5,4.7-10.2,9.2-14.8,14.2c-4.1,4.5-8.8,5.4-14.8,4c0-15.8,0-31.7,0-47.5
			c-11.4-3.3-21.1,2.7-22.8,14.8c-1.3,9.2-1.1,18.6-0.7,27.9c0.4,7.8,5.7,12.4,13,14.9c0,2.8,0,5.4,0,8.1
			c-11.1,0.1-22.1-10.1-23.2-22.7c-0.8-8.6-0.7-17.4,0.3-25.9c0.7-5.9,3.6-11.6,5.5-17.6c-6.2,0-13,0-20.4,0c0,22.1,0,44.1,0,66.5
			c-3.5,0-6.4,0-10.2,0c0-3,0-5.9,0-8.8c-0.1-7.3,0.2-14.7-0.6-21.9c-1.3-11.6-14.1-19.2-25.1-15.4c-6.7,2.3-10.8,9.3-9.7,16.7
			c1,7.2,5.4,10.8,13.5,11.1c0.8,0,1.6,0.1,2.9,0.2c0,2.8,0,5.5,0,8.2c-12.2,2.7-24.4-4.9-26.4-16.6c-2.5-14.4,6.4-27.2,20-29
			c8.9-1.2,17.2,0.4,25,6.4c0-6.2,0-11.6,0-17.3c-19.7,0-39.3,0-59.4,0c0,22.1,0,44.2,0,66.5c-3.5,0-6.4,0-9.9,0
			c-0.1-1.7-0.3-3.5-0.3-5.2c0-10.2,0.1-20.3-0.1-30.5c-0.1-7.4-4-11.3-10.5-11.1c-5.8,0.2-9,4.2-9,11.4c0,1.8,0,3.6,0,5.6
			c-3.5,0-6.4,0-10.1,0c0-2.1,0-4.2,0-6.3c0-5.9-2.2-9.3-6.5-10.4c-5.4-1.4-11.1,0.9-13.6,5.8c-3.6,6.7-1.6,17.5,4.4,20.6
			c3.2,1.7,7.3,1.7,11.4,2.6c0,2.2,0,4.9,0,7.6c-11.2,2.2-21.5-2.3-25.6-11.7c-3.5-7.9-3.3-22.7,5.6-29.4c8.5-6.4,19.7-6.6,29.1,0.2
			c10.8-5.9,12.2-6.1,24.5-3.8c0-3.9,0-7.8,0-12.1c-1.8-0.1-3.5-0.2-5.3-0.2c-19.2,0-38.3,0-57.5,0c-10.5,0-17.8,5.3-19.1,15.7
			c-1.2,9.2-1,18.6-0.8,27.9c0.2,5.6,3.1,10.7,8.4,12.7c6,2.3,5.1,6.2,4.5,10.6c-12-1.3-21.9-10.2-22.9-22.3
			c-0.8-9.7-0.7-19.7,0.6-29.4c2.2-15.6,13.4-24.3,29.2-24.3c105.1,0,210.3,0,315.4,0c2.1,0,4.2,0,6.7,0c0,3.2,0,5.8,0,8.8
			c-2.9,0.2-5.6,0.4-9,0.6C2271,709,2271,731.1,2271,753.5z"/>
		<path d="M1196,754.6c-5.6-1.1-10.6-1.3-15-3.1c-11.9-5.1-23.6-10.8-35.2-16.6c-1.5-0.7-2.7-2.9-3-4.7c-0.5-2.4-0.2-5-0.1-7.5
			c0.1-11,5.6-18.6,16.1-22.1c7.3-2.4,14.6-4.5,22-6.7c5-1.5,5-1.5,4.7-7.1c-18.5,0-37.1,0-56.3,0c0,22.1,0,44.1,0,66.5
			c-3.7,0-6.8,0-10.4,0c0-22.1,0-44.2,0-66.6c-3.2-0.2-6-0.4-8.9-0.6c0-2.9,0-5.5,0-8.4c2.9-0.2,5.6-0.5,8.9-0.7c0-1.8-0.1-3.4,0-5
			c0.5-13.7,11.8-25.6,25.4-25.1c14.6,0.6,29.1,2.8,44,4.3c-0.4,3.4-0.6,6-1,9.2c-9-1.1-17.7-2.2-26.3-3.2c-5-0.6-9.9-1.5-14.9-1.5
			c-11.6,0.1-18.7,9.6-16.2,21.5c69.6,0,139.4,0,209.5,0c0,3.2,0,5.9,0,8.7c-11.1,3.8-15.8,10.3-16.3,22.8c-0.2,4.7,0.2,9.3-0.1,14
			c-0.6,10.5,2.4,18.8,13.2,22.3c0,2.9,0,5.6,0,8.2c-11.7-0.6-22.1-10.2-23.1-23c-0.7-9.7-0.2-19.6,0.9-29.4c0.5-4.7,3.4-9.2,5.3-14
			c-6.4,0-13.1,0-20.2,0c0,22.2,0,44.1,0,66.4c-3.5,0-6.6,0-10.2,0c0-21.9,0-44,0-66.4c-31.1,0-61.6,0-92.8,0
			C1196,709,1196,731.1,1196,754.6z M1185.4,702.8c-1-0.1-1.3-0.2-1.6-0.1c-6.5,1.9-13.1,3.9-19.6,5.9c-9.2,2.8-11.4,6.1-11.4,15.6
			c0,2.9,0.8,4.5,3.6,5.7c8.7,3.8,17.2,8,25.8,12c0.9,0.4,2,0.6,3.2,0.9C1185.4,729.2,1185.4,716.1,1185.4,702.8z"/>
		<path d="M900.5,700c3.7,0,6.5,0,10,0c0,8.5,0,17,0,25.4c0.1,8.5,4.5,16.1,11.5,18.1c8.5,2.4,17.2,3.1,24.4-3.9
			c4.8-4.6,6.2-10.4,5.1-17.1c-2.8,0.2-5.4,0.5-8,0.5c-10.4,0-17.6-7-17.8-17.4c-0.1-6.1,0-12.3,0-19.1c-11,0-21.7,0-32.7,0
			c0-3.2,0-5.8,0-8.8c65.4,0,130.8,0,196.6,0c0,2.7,0,5.4,0,8.6c-11.8,0-23.4,0-35.4,0c0,2.2,0,3.9,0,6.4c2.8,0,5.6-0.1,8.3,0
			c13.6,0.7,22.7,11.3,21.3,24.8c-1,9.7-8.8,16.4-19,16.1c-0.8-4.2-1.9-8,4.1-10.1c4.3-1.5,5.7-6.8,4.6-12.1c-1-4.8-5.5-8.9-11-9.6
			c-2.7-0.4-5.6-0.1-8.8-0.1c0,17.4,0,34.3,0,52.7c-5.4-1-10.4-1.2-14.7-3c-11.6-4.9-22.9-10.7-34.4-15.9c-3.3-1.5-4.5-3.3-4.1-6.8
			c0.3-3.1-0.1-6.4,0.3-9.5c1.2-9.3,6.3-15.6,15.3-18.5c7.6-2.5,15.2-4.9,22.9-6.9c3.8-1,5.5-2.6,4.1-7c-18.5,0-37.2,0-56.3,0
			c0,22.1,0,44,0,66.4c-3.5,0-6.5,0-10.2,0c0-22,0-44,0-66.4c-13.7,0-26.7,0-40.2,0c0,7.4-0.4,14.8,0.2,22.2
			c0.3,3.8,3.9,5.2,7.5,5.2c3.7,0,6.5-1.6,7.5-5.3c0.4-1.4,0.4-3,0.6-5c3.1,0,6.3,0,10.7,0c-0.6,10.1-0.2,20.3-2,30.2
			c-2.1,11.4-13.7,19.5-25.3,19.5c-5,0-10.1,0.1-14.9-1c-11.7-2.6-20-13.5-20.1-25.4C900.4,718.3,900.5,709.4,900.5,700z
			 M1043.2,743.4c0-14.1,0-27.2,0-41.4c-9.3,3.1-18.3,5.5-26.8,9.1c-6,2.5-5.8,8.6-5.8,14.3c0,4.6,4,4.3,6.5,5.7
			c3.2,1.8,6.6,3.2,9.9,4.8C1032.2,738.3,1037.4,740.7,1043.2,743.4z"/>
		<path d="M1355.6,701.6c7.6-0.2,15.3,0.5,19.7,7.7c2,3.3,3.2,7.9,2.8,11.7c-1.3,12-13,18.2-29.3,16.2c0-2.5,0-5.1,0-8.5
			c2.3,0,4.8,0.4,7.2-0.1c3-0.6,6.7-1.1,8.6-3.1c2-2.2,3.2-6.2,3-9.2c-0.3-3.8-3.8-5.6-7.7-5.6c-4.8,0-9.6,0-14.6,0
			c-1.2-11.3-0.9-22,9.2-28.7c12.2-8,24.6-5.7,37.1,1.4c0.2-1.8,0.5-3.5,0.8-5.6c28.6,0,57.2,0,86.1,0c0,2.7,0,5.4,0,8.4
			c-2.8,0.2-5.4,0.4-8.5,0.6c0,22.2,0,44.3,0,66.6c-5.9,0.6-10.8,0.5-15.9-2.1c-11.1-5.6-22.5-10.8-33.8-15.9
			c-2.7-1.2-3.7-2.8-3.5-5.7c0.2-3.5-0.2-7,0.2-10.5c1.2-9.4,6.5-15.5,15.4-18.4c7.6-2.5,15.2-4.9,22.9-6.9c3.8-1,5.4-2.7,4.1-7
			c-18.6,0-37.3,0-56.6,0c0,22.1,0,44.1,0,66.5c-3.7,0-6.8,0-10.6,0c0-1.7,0-3.5,0-5.2c0-13.5-0.4-27,0.1-40.5
			c0.5-12.6-8.8-24.2-27.1-20.7C1358.5,688.2,1354.6,694.5,1355.6,701.6z M1459.2,702c-9.3,3.1-18.2,5.5-26.7,9
			c-6,2.5-5.9,8.5-5.9,14.2c-0.1,4.9,4.1,4.7,6.7,6.1c4.5,2.5,9.3,4.4,13.9,6.6c3.8,1.8,7.7,3.6,12,5.6
			C1459.2,729.4,1459.2,716.2,1459.2,702z"/>
		<path d="M1210.4,700.1c3.5,0,6.4,0,10,0c0,8.4,0,16.7,0,24.9c0,12.6,7.3,19.8,19.8,19.9c3.2,0,6.4,0.2,9.5-0.4
			c10.7-2,16.7-13.3,13.7-25.3c-10.7,7-17.2,7.7-23.4,2.5c-5.8-4.8-7.8-11.9-5.3-18.4c2.3-6,8.5-9.6,15.9-9c0.2,3.9,1.9,7.8-3.9,10
			c-3.3,1.2-3.7,6.3-1.3,9.1c2.5,3.1,5.6,3.6,8.8,1.1c1.9-1.5,3.8-3.3,5.2-5.3c3.8-5.4,9-5.4,14.5-4.3c0,9,0.9,17.9-0.2,26.5
			c-1.7,13.3-13.3,22.3-26.6,22.4c-3.3,0-6.7,0-10,0c-13.7-0.1-25.5-10.6-26.5-24.3c-0.6-8.3-0.3-16.6-0.3-25
			C1210.2,703.2,1210.3,701.9,1210.4,700.1z"/>
	</g>
</g>
</svg>
