<svg width="165" height="178" viewBox="0 0 165 178" fill="none" xmlns="http://www.w3.org/2000/svg">
<path d="M57.7422 19.561C60.1991 13.3463 63.9842 8.03832 69.0838 3.63013C70.1505 2.70246 71.4306 1.74689 72.924 0.770391C74.0457 0.0240679 75.1193 -0.261908 76.3237 0.282142C77.0394 0.609966 77.473 1.11914 77.8515 1.83059C79.9092 5.66683 81.9601 9.48214 83.9903 13.2765C84.0109 13.3114 83.9972 13.3323 83.9628 13.3463C78.4021 15.4178 73.447 19.1704 69.4761 23.7041C63.3855 30.6582 59.2769 39.3699 58.1551 48.6536C58.1069 49.0721 58.0725 49.4767 58.0519 49.8533C58.045 50.0416 58.0037 50.0486 57.9418 49.8742C57.2191 47.9282 56.6135 45.9125 56.1318 43.8269C55.4436 40.8486 55.0719 37.9122 55.01 35.0106C54.893 29.598 55.8014 24.4504 57.7422 19.561Z" fill="white"/>
<path d="M87.0478 14.446C87.0824 14.4318 87.0893 14.4035 87.0755 14.3682L82.7759 6.25945C82.762 6.22407 82.7689 6.18162 82.7966 6.16039C89.1387 1.82301 96.5747 -0.172331 104.253 0.011635C105.589 0.0470146 106.732 0.853639 107.133 2.12726C107.23 2.43859 107.299 2.97634 107.327 3.72636C107.542 9.39397 107.77 15.012 107.999 20.5877C108.006 20.6372 107.985 20.6584 107.936 20.6514C103.131 20.0994 98.2017 20.0994 93.3829 20.7716C84.4237 22.017 76.0946 25.8237 69.8356 32.3899C67.1492 35.2131 64.9129 38.3617 63.1266 41.843C63.0158 42.0623 62.9743 42.0552 63.0158 41.8005C64.6152 32.0219 71.3519 23.8425 79.3833 18.5711C81.8135 16.9791 84.3683 15.6064 87.0478 14.446Z" fill="white"/>
<path d="M90.993 70.6454C91.007 70.6876 91 70.7299 90.9721 70.7791C90.9512 70.8143 90.9233 70.8354 90.8885 70.8565C86.7067 73.1084 82.2949 74.4384 77.6531 74.8606C72.0286 75.3673 66.2508 74.4947 61.0306 72.2076C54.8067 69.4913 49.7676 65.2832 45.9134 59.5901C42.3519 54.3264 40.3516 48.0564 40.045 41.7652C39.7662 36.1074 40.7838 30.6959 43.0837 25.5166C43.1256 25.4181 43.1256 25.3547 43.0768 25.3336C46.4292 19.894 50.7225 15.3691 55.9497 11.7591C57.3854 10.7669 58.9118 9.85908 60.5078 9.02166C60.5845 8.97944 60.6054 9.00055 60.5566 9.07092C56.0751 16.0658 53.58 24.3414 52.9597 32.6522C52.6252 37.0433 52.9528 41.4556 53.9285 45.8819C56.0961 55.7127 61.7693 64.7483 70.6556 69.5124C73.6526 71.1169 76.8307 72.081 80.1901 72.4047C83.8561 72.7636 87.4594 72.1795 90.993 70.6454Z" fill="white"/>
<path d="M109.905 22.4024L109.452 13.1456C109.445 13.0751 109.48 13.0399 109.548 13.0329C111.779 12.892 114.091 13.216 116.212 13.7796C120.172 14.8434 123.878 16.4848 127.323 18.718C128.03 19.1759 128.531 19.8522 128.819 20.754C129.059 21.5007 129.059 22.2897 128.826 23.121C128.743 23.438 128.531 23.8607 128.194 24.3961C125.092 29.3204 122.032 34.1884 119.012 38.9859C119.005 38.993 118.998 39 118.985 39C118.978 39 118.964 39 118.957 38.993C115.334 35.386 111.134 32.8006 106.378 31.2366C100.928 29.4402 95.1225 29.0457 89.4127 29.729C83.1675 30.4687 76.9567 32.4131 71.1576 35.1394C70.9723 35.224 70.9517 35.1958 71.089 35.0479C74.9047 30.8633 79.3792 27.686 84.5126 25.5022C92.4598 22.1277 101.285 21.4373 109.83 22.4729C109.884 22.4799 109.905 22.4518 109.905 22.4024Z" fill="white"/>
<path d="M42.505 155.821V131.581C42.505 131.512 42.456 131.456 42.386 131.456H0.0630119C0.0210049 131.456 0 131.442 0 131.4V121.056C0 121.021 0.0210044 121 0.0560106 121C14.4507 121 28.7964 121 43.1001 121C43.8073 121 44.6124 121.111 45.5016 121.327C50.2415 122.49 52.993 126.458 52.993 131.219C53 145.399 53 159.58 53 173.76C53 174.352 52.958 174.755 52.874 174.971C52.7199 175.396 52.4259 175.702 51.9848 175.911C51.5717 176.099 51.1376 176.12 50.6756 175.974C50.2555 175.841 49.8074 175.417 49.4363 175.117C38.3462 166.04 27.2631 156.976 16.1871 147.933C15.5779 147.439 14.9618 147.091 14.3177 146.896C12.7004 146.395 12.0213 147.787 12.0213 149.124C12.0213 154.192 12.0213 159.343 12.0213 164.571C12.0213 166.27 13.3515 167.509 15.0388 167.502C19.0576 167.502 22.7543 167.502 26.1359 167.502C26.1779 167.502 26.1989 167.523 26.1989 167.564V177.93C26.1989 177.972 26.1779 177.999 26.1289 177.999C22.3762 177.985 18.5185 177.985 14.5557 177.999C13.6876 178.006 12.9454 177.958 12.3433 177.867C6.77728 177.025 2.51347 172.778 1.69432 167.216C1.6033 166.597 1.55429 165.789 1.55429 164.815C1.55429 159.789 1.5613 154.888 1.5753 150.105C1.5823 148.254 1.86235 146.388 2.38745 144.613C3.03157 142.406 4.2358 140.429 6.07015 139.058C7.04333 138.341 8.20555 137.784 9.5638 137.394C14.9758 135.842 20.3388 138.188 24.6797 141.369C25.0787 141.661 25.7088 142.155 26.563 142.852C32.031 147.328 37.324 151.658 42.449 155.841C42.463 155.855 42.477 155.855 42.491 155.848C42.498 155.841 42.505 155.834 42.505 155.821Z" fill="white"/>
<path d="M69.3726 140.97C71.3444 140.984 73.3504 140.984 75.3975 140.963C76.3971 140.956 77.1571 140.998 77.6774 141.074C80.9775 141.582 83.6613 143.107 85.7222 145.661C87.1326 147.401 88.0226 149.455 88.3992 151.821C88.495 152.448 88.543 153.227 88.5361 154.146C88.5224 155.657 88.6046 157.132 88.3102 158.594C87.6871 161.643 86.2288 164.128 83.9215 166.042C82.0456 167.608 79.9163 168.534 77.5337 168.819C76.9791 168.889 76.2876 168.923 75.4455 168.923C70.6392 168.923 65.6206 168.91 60.3899 168.896C59.4998 168.889 59 168.206 59.0068 167.35C59.0205 165.151 59.0205 162.742 59 160.125C59 159.687 59.0479 159.367 59.1575 159.158C59.3903 158.719 59.8147 158.434 60.294 158.434C65.4358 158.42 70.2695 158.42 74.795 158.434C75.3428 158.434 75.7878 158.385 76.1164 158.274C77.2598 157.898 78.1293 156.84 78.2457 155.622C78.2799 155.267 78.2868 154.905 78.2731 154.543C78.1909 152.803 76.8627 151.459 75.1442 151.459C69.5506 151.459 64.1965 151.466 59.0822 151.466C59.0342 151.466 59.0068 151.439 59.0068 151.39C59.0137 144.276 59.0137 137.587 59.0137 131.343C59.0068 128.072 60.1502 125.427 62.4233 123.415C63.7447 122.239 65.2783 121.494 67.0242 121.167C67.613 121.056 68.3456 121 69.2219 121C78.3142 121.021 87.1531 121.021 95.7387 121C96.5603 121 97.2586 121.049 97.8338 121.146C100.038 121.529 101.894 122.552 103.4 124.223C105.132 126.137 105.995 128.455 105.995 131.19C106.002 146.455 106.002 162.046 105.995 177.965C105.995 177.986 105.981 178 105.967 178H95.7729C95.7319 178 95.7113 177.979 95.7113 177.93C95.7113 163.71 95.7113 149.232 95.7113 134.503C95.7113 132.833 94.2804 131.469 92.6577 131.469C85.6263 131.476 78.8414 131.476 72.3166 131.469C70.9883 131.469 69.7834 132.429 69.4136 133.71C69.3246 134.009 69.2835 134.469 69.2904 135.081C69.3041 137.093 69.3041 139.035 69.2972 140.886C69.2972 140.942 69.3178 140.97 69.3726 140.97Z" fill="white"/>
<path d="M122.517 155.814C122.517 155.856 122.531 155.863 122.566 155.835C127.668 151.672 132.769 147.495 137.877 143.311C138.129 143.109 138.388 142.894 138.661 142.671C142.167 139.754 146.526 137.178 151.201 136.928C154.658 136.74 158.352 137.909 160.578 140.666C162.334 142.845 163.076 145.671 163.335 148.532C163.384 149.075 163.412 149.876 163.412 150.92C163.419 160.04 163.419 169.055 163.412 177.965C163.412 177.986 163.398 178 163.377 178H153.02C152.999 178 152.985 177.986 152.985 177.972C152.992 167.126 152.985 157.492 152.964 149.068C152.964 148.365 152.789 147.787 152.446 147.342C152.096 146.883 151.579 146.715 150.9 146.848C150.081 147.001 149.276 147.558 148.619 148.087C137.024 157.568 125.764 166.771 114.841 175.71C114.281 176.162 113.49 176.176 112.882 175.835C112.238 175.459 112 174.846 112 174.143C112.007 159.211 112.007 144.982 112.007 131.463C112.007 130.509 112.105 129.583 112.294 128.685C113.169 124.641 116.29 121.821 120.341 121.146C120.943 121.049 121.72 121 122.685 121C136.618 121.007 150.711 121.014 164.965 121.007C164.986 121.007 165 121.021 165 121.042V131.407C165 131.442 164.972 131.463 164.944 131.463H122.58C122.538 131.463 122.517 131.484 122.517 131.526V155.814Z" fill="white"/>
<path d="M42.6659 25C42.7145 25.021 42.7145 25.0842 42.6729 25.1824C40.3813 30.3461 39.3674 35.7413 39.6452 41.382C39.9507 47.6542 41.9437 53.9053 45.4923 59.1532C49.3324 64.829 54.3532 69.0245 60.5544 71.7326C65.7557 74.0128 71.5125 74.8827 77.1166 74.3776C81.7415 73.9566 86.1372 72.6307 90.3038 70.3856C90.3385 70.3645 90.3663 70.3435 90.3871 70.3084C90.4149 70.2593 90.4218 70.2172 90.4079 70.1751C91.9496 69.4946 93.2898 68.7228 94.4495 67.8669C96.5189 66.3304 98.3244 64.4221 99.8591 62.1419C103.519 56.7117 104.838 49.9975 103.373 43.578C102.505 39.7614 100.873 36.3166 98.4911 33.2436C98.6022 33.2156 98.6994 33.2717 98.7758 33.405C98.7966 33.4331 98.8244 33.4541 98.8591 33.4541C98.88 33.4541 98.9008 33.4681 98.9147 33.4822C105.296 40.5892 108.533 49.787 107.928 59.3567C107.13 72.0834 99.5119 83.3158 88.0955 88.7461C87.3733 89.0899 86.6441 89.4056 85.908 89.6862C79.5123 92.1418 72.9014 92.6399 66.0821 91.1946C65.8876 91.1946 65.5751 91.1104 65.1307 90.942C60.8739 89.3214 57.0823 87.2377 53.756 84.6839C47.513 79.8921 42.8118 73.8654 39.666 66.6251C39.3535 65.9024 39.0618 65.1658 38.791 64.4151C36.3188 57.5957 35.4925 50.6219 36.298 43.4938C37.048 36.8919 39.166 30.7249 42.6659 25Z" fill="white"/>
<path d="M66 90.5718C72.8456 91.9893 79.4821 91.5007 85.9025 89.0924C86.6414 88.8172 87.3734 88.5076 88.0984 88.1704C99.5589 82.8446 107.206 71.8284 108.008 59.3466C108.614 49.9611 105.366 40.9403 98.9594 33.97C98.9454 33.9562 98.9245 33.9425 98.9036 33.9425C98.8688 33.9425 98.8409 33.9218 98.82 33.8943C98.7433 33.7636 98.6457 33.7085 98.5342 33.7361L97.1051 32.1328C97.0005 32.0158 97.0214 31.9814 97.1748 32.009C97.3979 32.0571 97.7185 32.0296 97.9137 32.0365C103.198 32.3117 108.147 34.3072 112.211 37.6788C118.59 42.9564 122.194 50.9244 121.992 59.1539C121.901 62.787 121.079 66.3444 119.524 69.8123C119.21 70.5073 118.841 71.2023 118.402 71.8972C114.77 77.7115 110.071 82.4456 104.313 86.0993C97.6419 90.3379 89.9527 92.6498 82.0545 92.9664C76.9725 93.1659 71.8557 92.4778 66.718 90.8952C66.3764 90.7851 66.1394 90.6819 66 90.5718Z" fill="white"/>
</svg>
