<?xml version="1.0" encoding="utf-8"?>
<!-- Generator: Adobe Illustrator 17.1.0, SVG Export Plug-In . SVG Version: 6.00 Build 0)  -->
<!DOCTYPE svg PUBLIC "-//W3C//DTD SVG 1.1//EN" "http://www.w3.org/Graphics/SVG/1.1/DTD/svg11.dtd">
<svg version="1.1" id="Layer_1" xmlns="http://www.w3.org/2000/svg" xmlns:xlink="http://www.w3.org/1999/xlink" x="0px" y="0px"
	 viewBox="0 677.8 600 206.1" enable-background="new 0 677.8 600 206.1" xml:space="preserve">
<g>
	<path fill="#EB1C24" d="M351.2,782.6c0,16,0,31.9,0,47.9c0,1.6-0.3,2.9-1.7,3.9c-1.4,1-3.2,1.2-4.9-0.2c-2.7-2.1-5.3-4.4-8-6.6
		c-1.6-1.3-3.2-2.6-4.8-3.8c-1.7-1.4-3.4-2.8-5.2-4.2c-2.6-2.2-5.3-4.3-7.9-6.5c-1.8-1.5-3.6-3-5.5-4.5c-2.6-2.1-5.2-4.2-7.7-6.3
		c-2.3-1.9-4.6-3.8-6.8-5.7c-2.1-1.7-4.2-3.4-6.2-5.1c-2.3-1.9-4.6-3.8-6.9-5.7c-2.1-1.7-4.3-3.4-6.4-5.1c-2.3-1.8-4.5-3.7-6.7-5.6
		c-1.9-1.5-3.7-3.1-6-4c-2.5-0.9-4.7,0.6-5,3.6c-0.1,0.5-0.1,1.1-0.1,1.6c0,11.1,0.1,22.1-0.1,33.2c-0.1,4,3,7.1,7.1,7
		c7.6-0.2,15.2,0,22.8-0.1c1,0,1.3,0.2,1.3,1.3c-0.1,6.9-0.1,13.8,0,20.7c0,1.1-0.3,1.2-1.3,1.2c-9.6-0.1-19.2,0.1-28.8-0.2
		c-3.9-0.1-7.6-1.7-11-3.8c-5.8-3.7-9.7-8.8-11.9-15.3c-0.9-2.7-1.2-5.4-1.2-8.1c0-11.1,0-22.1,0-33.2c0-5.1,0.6-10.1,2.3-14.8
		c2.9-7.8,8.6-12.6,16.8-14.3c7-1.5,13.7-0.3,20.1,2.5c6.4,2.8,11.9,6.8,17.2,11.3c4.4,3.7,9,7.3,13.4,11c4.7,3.8,9.4,7.7,14.1,11.5
		c1.6,1.3,3.2,2.7,4.8,4c0.3,0.2,0.6,0.5,0.9,0.4c0.4-0.2,0.2-0.6,0.2-0.9c0-17.1,0-34.2,0.1-51.3c0-1.2-0.6-1.1-1.3-1.1
		c-30.1,0-60.1,0-90.1,0c-1.8,0-1.8,0-1.8-1.9c0-6.6,0-13.2,0-19.7c0-1,0.2-1.4,1.3-1.4c31,0,62,0,93,0c5.9,0,11.2,2,15.5,6.2
		c3.5,3.4,5.5,7.6,6.1,12.5c0.3,2,0.3,4,0.3,6C351.2,753.2,351.2,767.9,351.2,782.6C351.2,782.6,351.2,782.6,351.2,782.6z"/>
	<path fill="#EB1C24" d="M506.8,790.3c2.6-1.7,4.9-3.8,7.3-5.8c10.2-8.3,20.2-16.7,30.4-24.9c5.8-4.6,12.2-8.3,19.5-9.9
		c7.9-1.8,15.4-0.9,22.2,3.7c4.6,3.1,7,7.6,8.5,12.7c1.3,4.5,1.7,9.2,1.7,13.9c0,19.3,0,38.5,0,57.8c0,1.2-0.3,1.5-1.5,1.5
		c-6.6-0.1-13.2-0.1-19.9,0c-1.2,0-1.6-0.3-1.6-1.6c0.1-20.3,0-40.6,0-60.9c0-1.2,0-2.4-0.4-3.6c-0.8-2.1-2.4-3-4.6-2.4
		c-1.6,0.4-2.9,1.3-4.2,2.3c-12.7,10.4-25.4,20.8-38.1,31.2c-7,5.7-14,11.4-21,17.1c-5.1,4.2-10.2,8.4-15.2,12.6
		c-1.3,1-2.7,1.3-4.2,0.8c-1.4-0.6-2.1-1.7-2.2-3.3c0-0.5-0.1-1.1-0.1-1.6c0-30.9,0-61.8,0-92.7c0-5.1,0.9-9.9,3.9-14.3
		c3.4-5,8.2-7.6,13.9-8.7c2.1-0.4,4.2-0.4,6.3-0.4c30.2,0,60.4,0,90.6,0c1.9,0,1.7-0.2,1.7,1.7c0,6.7,0,13.3,0,20
		c0,1.1-0.3,1.4-1.4,1.4c-30.1,0-60.3,0-90.4-0.1c-1.3,0-1.7,0.3-1.7,1.6c0.1,16.8,0,33.6,0,50.4c0,0.5,0.1,0.9,0.1,1.4
		c0,0.1,0,0.1,0.1,0.2C506.8,790.4,506.8,790.4,506.8,790.3z"/>
	<path fill="#EB1C24" d="M470.2,786.1c0,17.2,0,34.5,0,51.7c0,1.2-0.2,1.6-1.5,1.5c-6.7-0.1-13.4-0.1-20.1,0c-1.3,0-1.5-0.4-1.5-1.6
		c0-31.1,0-62.2,0-93.3c0-3.1-1.4-5.2-3.9-6.8c-1.1-0.7-2.3-0.8-3.5-0.8c-15.1,0-30.2-0.1-45.3,0c-3.4,0-6.6,2.7-6.7,6.5
		c-0.1,4.5,0,8.9,0,13.4c0,0.9,0.4,1,1.1,1c4.6,0,9.1,0,13.7,0c13.8,0,25.5,9.3,27.8,22.9c1.3,7.7,1.4,15.5-2.3,22.8
		c-4.3,8.6-11.3,13.9-20.9,15.5c-1.4,0.2-2.8,0.3-4.2,0.3c-11.7,0-23.3,0-35-0.1c-2.6,0-3.4-0.8-3.4-3.4c0-5.4,0.1-10.8,0-16.2
		c-0.1-2.4,1.4-3.4,3.5-3.4c10.7,0.1,21.5,0,32.2,0.1c4.8,0.1,8.3-4.2,7.3-9.1c-0.9-4.3-3.3-6.3-7.8-6.3c-11.3,0-22.6,0-33.9,0
		c-0.7,0-1.3,0.1-1.3-1c0.1-15.1,0-30.2,0.1-45.3c0.1-6.3,2.8-11.4,7.4-15.5c3.9-3.5,8.7-5.2,14-5.2c20.8-0.1,41.7-0.1,62.5,0
		c10.6,0.1,19.5,8,21.1,18.4c0.3,1.7,0.3,3.4,0.3,5.1C470.1,753.7,470.1,769.9,470.2,786.1C470.1,786.1,470.1,786.1,470.2,786.1z"/>
	<g>
		<path fill="#F06522" d="M66.1,878.5c-4.9-1.4-9.4-3.6-13.9-5.9c-5.4-2.8-10.5-6.2-15.2-10c-3.7-2.9-7.2-6.1-10.4-9.6
			c-4.7-5.2-8.9-10.7-12.6-16.7c-3.1-5.2-5.8-10.5-7.8-16.1c-2-5.5-3.7-11.2-4.6-17c-0.6-3.7-1-7.4-1.3-11.1
			c-0.3-3.7-0.2-7.3-0.2-11c0.1-2.6,0.4-5.2,0.7-7.7c0.7-5.2,1.7-10.3,3.2-15.4c2-6.9,4.8-13.5,8.2-19.8c0.6-1.2,1.1-2.5,2.3-3.4
			c0,1.1-0.7,2-1.1,2.9c-2.6,6.3-4.2,12.9-4.9,19.6c-0.4,3.8-0.7,7.7-0.4,11.6c0.3,3.2,0.4,6.4,1,9.5c1.6,9.2,4.7,18,9.5,26.1
			c4.4,7.4,9.8,13.9,16.4,19.5c5.5,4.7,11.6,8.5,18.2,11.4c9.1,4.1,18.7,6.2,28.7,6.7c4.2,0.2,8.5-0.2,12.7-0.7
			c8.9-1.2,17.3-3.9,25.2-8c0.4-0.2,0.8-0.3,0.9-0.9c2.9-1.4,5.7-2.9,8.3-4.8c3.2-2.3,6-4.9,8.6-7.8c2.9-3.3,5.3-6.9,7.3-10.7
			c2.1-4.1,3.6-8.4,4.5-12.9c0.7-3.5,1.3-7.1,1.2-10.7c-0.1-4.8-0.9-9.5-2.2-14.1c-1.9-6.9-5.2-13-9.3-18.7c-0.3-0.5-1-0.8-1-1.5
			c0.6,0.1,0.9,0.6,1.3,1c0.9,1,1.7,2,2.5,3c3.9,4.6,7.1,9.6,9.8,15c1.9,3.9,3.6,8,4.8,12.2c1.4,4.9,2.5,9.8,2.8,14.9
			c0.2,3.3,0.4,6.6,0.2,9.9c-0.2,3.7-0.6,7.3-1.2,10.9c-1.5,8.1-4.3,15.8-8.4,23c-4.4,7.8-9.9,14.5-16.7,20.4
			c-5.8,5.1-12.3,9.2-19.4,12.3c-9.7,4.3-19.8,6.3-30.4,6.4c-2,0-3.9-0.2-5.9-0.2c-1.2,0-2.4-0.2-3.6-0.4
			C71.1,879.3,68.6,878.9,66.1,878.5z"/>
		<path fill="#F5921E" d="M66.1,878.5c2.5,0.4,5.1,0.8,7.6,1.2c1.2,0.2,2.4,0.4,3.6,0.4c2,0,3.9,0.2,5.9,0.2
			c10.6-0.1,20.7-2.1,30.4-6.4c7.1-3.1,13.6-7.2,19.4-12.3c6.7-5.9,12.3-12.6,16.7-20.4c4.1-7.2,6.9-14.9,8.4-23
			c0.7-3.6,1-7.2,1.2-10.9c0.2-3.3,0.1-6.7-0.2-9.9c-0.3-5.1-1.4-10-2.8-14.9c-1.2-4.2-2.8-8.3-4.8-12.2c-2.7-5.4-5.8-10.4-9.8-15
			c-0.8-1-1.7-2-2.5-3c-0.4-0.4-0.7-0.9-1.3-1c-1.3-0.7-1.7-2.2-3-3.1c2.8-0.3,5.4,0.1,7.9,0.5c5.7,0.9,11.2,2.8,16.3,5.6
			c7,3.8,12.9,8.8,17.9,15.1c5.7,7.2,9.5,15.2,11.6,24.1c1.3,5.7,1.8,11.4,1.4,17.3c-0.5,8-2.4,15.7-6,22.9
			c-2.6,5.3-6.1,10-9.8,14.6c-2.6,3.2-5.4,6.1-8.4,8.9c-7.7,7.3-16.4,13.1-26,17.7c-6.7,3.2-13.6,5.5-20.8,7
			c-3.7,0.8-7.5,1.4-11.3,1.7c-5.4,0.4-10.7,0.5-16.1,0.2c-6.9-0.4-13.7-1.6-20.3-3.5C69.5,879.7,67.7,879.2,66.1,878.5z"/>
		<path fill="#EB1C24" d="M120.6,832.5c-0.1,0.5-0.5,0.7-0.9,0.9c-7.9,4.1-16.3,6.9-25.2,8c-4.2,0.6-8.4,0.9-12.7,0.7
			c-9.9-0.5-19.5-2.6-28.7-6.7c-6.6-2.9-12.6-6.8-18.2-11.4c-6.6-5.6-12-12.1-16.4-19.5c-4.8-8.1-7.9-16.8-9.5-26.1
			c-0.6-3.1-0.7-6.3-1-9.5c-0.3-3.9,0-7.8,0.4-11.6c0.7-6.7,2.3-13.3,4.9-19.6c0.4-0.9,1.1-1.8,1.1-2.9c0.1-1.3,1-2.1,1.7-3
			c2.8-4.2,5.8-8.1,9.2-11.8c1.9-2.1,3.9-4.3,6-6.2c5.6-5.2,11.8-9.8,18.5-13.5c1.1-0.6,2.2-1.2,3.4-1.6c-0.9,1.6-1.8,3.1-2.7,4.7
			c-4.6,7.9-7.8,16.3-10.2,25c-1.4,5.1-2.4,10.3-3.1,15.5c-0.8,5.8-1.1,11.7-0.8,17.6c0.7,12,3.1,23.6,8.1,34.6
			c3.3,7.2,7.5,13.8,12.8,19.8c8.1,9,17.8,15.4,29.4,18.9c3.1,0.9,6.3,1.4,9.5,1.8c6.9,0.7,13.6-0.1,20.2-2.3
			C117.9,833.6,119.2,833,120.6,832.5z"/>
		<path fill="#EB1D25" d="M77.1,755.3c0.2-1,1.1-1.7,1.7-2.3c3.2-3,6.4-5.9,9.9-8.5c4.2-3.1,8.6-5.7,13.3-7.9
			c6.9-3.2,14-5.7,21.5-7.2c5.1-1,10.3-1.7,15.6-2.1c7.4-0.6,14.8-0.2,22.3,0.3c0.1,0,0.1,0,0.1,0c2.1,0.2,1.9,0.2,1.9-1.9
			c0.1-2.6-0.2-5.2-0.3-7.8c-0.2-2.6,0.1-5.2-0.5-7.8c-0.2-0.7,0-1.6,0-2.3c0-0.6,0.5-0.5,0.9-0.5c4.1-0.2,8,0.3,12,1.1
			c7.3,1.6,14.2,4.2,20.8,7.6c2.4,1.2,4.8,2.5,6.9,4.1c3.3,2.5,4.2,7.4,2,10.9c-4.8,7.5-9.6,14.9-14.4,22.3
			c-2.1,3.2-4.2,6.5-6.3,9.8c-0.5,0.8-0.7,0.7-1.3,0.1c-5.9-5.9-12.8-10.3-20.4-13.7c-5.1-2.3-10.4-3.9-15.9-5
			c-3.1-0.6-6.2-1-9.3-1.3c-4.4-0.4-8.8-0.5-13.2-0.3c-8.6,0.5-17.1,1.9-25.5,4.3c-7.1,2-14.1,4.5-20.8,7.5
			C77.8,755.2,77.5,755.2,77.1,755.3L77.1,755.3z"/>
		<path fill="#F06523" d="M59.2,768.6c0.5-2.1,0.8-4.3,1.5-6.4c1.2-3.7,2.4-7.4,4.3-10.9c2-3.7,4.2-7.3,6.8-10.7
			c9.4-12.6,21.7-21.8,35.8-28.6c1.4-0.7,2.8-1.3,4.3-1.9c0.7-0.3,0.9-0.6,0.5-1.3c-2.6-4.6-4.9-9.2-7.6-13.7
			c-0.6-0.9-0.9-2-1.6-2.8c-0.3-0.4,0-0.6,0.3-0.8c9.1-5.9,18.9-9.8,29.6-11.6c5.7-1,11.5-1.4,17.3-1.3c4.3,0.1,7.1,2.7,7.3,7.1
			c0.1,3.7,0.1,7.3,0.3,11c0.2,4.3,0.4,8.6,0.5,12.9c0.1,4.1,0.4,8.3,0.7,12.4c0.1,1-0.3,1.2-1.3,1.2c-4.1-0.2-8.2-0.8-12.4-0.7
			c-2.8,0-5.6-0.1-8.4,0.1c-5,0.4-10,0.8-14.9,1.7c-6.8,1.2-13.3,3.1-19.6,5.6c-7.2,2.9-13.8,6.7-20,11.4
			c-8.3,6.5-15.1,14.3-20.6,23.3c-0.4,0.7-0.8,1.4-1.2,2.2c-0.4,0.7-0.8,1.4-1.2,2.1C59.4,768.7,59.3,768.7,59.2,768.6z"/>
		<path fill="#F5921F" d="M48.6,787.4c-0.7-0.3-0.7-0.8-0.8-1.3c-1.8-5.4-3.5-10.9-4.5-16.5c-0.5-2.9-0.9-5.8-1.2-8.8
			c-0.4-4.8-0.3-9.7-0.2-14.5c0.1-3,0.7-6,1.1-8.9c0.8-4.7,2.1-9.2,3.6-13.6c1.2-3.6,2.8-7.1,4.6-10.5c2.9-5.7,6.4-10.9,10.4-15.9
			c2.6-3.3,5.5-6.3,8.6-9.1c3.8-3.5,7.9-6.7,12.4-9.3c3.4-2,8-1.1,9.9,2.5c3.4,6.3,6.9,12.7,10.3,19c1.2,2.2,2.4,4.4,3.7,6.7
			c-5.4,2-10.4,4.5-15.1,7.6c-9.8,6.5-17.9,14.8-24.7,24.3c-6.4,9-11.3,18.8-14.6,29.4c-1.6,5.2-2.8,10.4-3.4,15.8
			C48.8,785.2,48.7,786.2,48.6,787.4z"/>
	</g>
	<g>
		<path d="M412.5,858.6c0,1.9-0.1,3.7,0,5.5c0.1,1.1,0.8,1.6,1.9,1.7c1.1,0.1,1.9-0.3,2.2-1.5c0.1-0.4,0.1-0.8,0.2-1.3
			c0.8,0,1.6,0,2.4,0c0,2.4,0.3,4.9-0.1,7.3c-0.5,3.5-3.5,5.7-7.1,5.8c-2.7,0.1-5.3-0.1-7-2.4c-0.9-1.1-1.7-2.6-1.8-3.9
			c-0.3-2.6-0.1-5.1-0.1-7.8c0.8,0,1.6,0,2.6,0c0,1.2,0,2.4,0,3.6s0,2.4,0.1,3.6c0.1,2,1.1,3.5,2.9,4.2c2,0.7,4.2,0.8,6-0.5
			c1.6-1.2,2.1-2.8,1.9-4.9c-0.4,0-0.9,0.1-1.3,0.1c-3.4,0.3-5.5-1.6-5.6-5c0-1.5,0-2.9,0-4.5c-3.5,0-6.8,0-10.3,0
			c0,5.8,0,11.6,0,17.5c-0.9,0-1.8,0-2.7,0c0-5.8,0-11.7,0-17.5c-0.8-0.1-1.5-0.1-2.3-0.1c0-0.7,0-1.4,0-2.2
			c0.7-0.1,1.5-0.1,2.2-0.2c0.1-1,0.2-2,0.4-2.9c0.8-2.9,3.4-5.2,6.4-5c3.8,0.2,7.6,0.7,11.6,1.2c-0.1,0.9-0.2,1.6-0.3,2.4
			c-2.4-0.3-4.7-0.6-6.9-0.9c-1-0.1-2-0.3-3-0.4c-3.5-0.3-5.7,1.9-5.3,5.6c7.8,0,15.6,0,23.5,0c0-0.4,0.1-0.8,0.1-1.2
			c0.2-3.8,3.2-6.9,7-6.7c3.7,0.2,7.5,0.8,11.3,1.2c-0.1,0.9-0.2,1.6-0.3,2.4c-3.2-0.4-6.2-0.8-9.2-1.1c-1.1-0.1-2.2-0.1-3.2,0.2
			c-2.2,0.7-3.1,2.7-2.7,5.3c13.3,0,26.6,0,39.9,0c0.3-1.8-0.4-2.8-2.1-2.9c-1.5-0.1-3.1,0-4.6-0.1c-2.2-0.1-3.6-1.7-3.6-3.9
			c1.1,0.1,2.4-0.7,3,1.1c0.1,0.2,0.8,0.4,1.3,0.4c1.4,0.1,2.8-0.1,4.2,0.1c2.8,0.2,4.3,1.8,4.7,4.6c0,0.2,0.1,0.4,0.1,0.7
			c10.4,0,20.7,0,31.1,0c0,0.8,0,1.5,0,2.3c-0.7,0-1.4,0.1-2.2,0.1c0,5.8,0,11.6,0,17.5c-1,0-1.8,0-2.8,0c0-2.2,0-4.4,0-6.6
			c0-1.1,0-2.3,0-3.4c-0.1-1.4-1.1-2.3-2.6-2.3c-1.3,0-2.3,0.9-2.4,2.3c-0.1,0.7,0,1.4,0,2.2c-0.9,0-1.7,0-2.7,0c0-0.6,0-1.1,0-1.6
			c0-1.7-0.7-2.6-1.9-2.8c-1.6-0.3-3.1,0.5-3.6,2c-0.9,3,0.4,5.9,3.7,5.5c0.2,0,0.4,0,0.7,0.1c0,0.8,0,1.5,0,2.2
			c-3.1,0.6-5.7-0.6-6.8-3.1c-0.9-1.9-0.8-5.9,1.3-7.7c2.2-1.7,5.2-1.8,7.9,0.1c1.8-1.7,4-1.7,6.3-1c0-1.1,0-2.1,0-3.2
			c-6.5,0-13,0-19.7,0c0,5.8,0,11.6,0,17.5c-0.9,0-1.8,0-2.7,0c0-5.8,0-11.6,0-17.5c-4.8,0-9.5,0-14.4,0c0,1.4,0,2.8,0,4.2
			c0,2.4,0,4.8,0,7.2c0,2.4,1.1,3.8,3.2,3.8c2.6,0.1,4.5-1.5,4.7-3.8c0.2-3.2-0.8-4.2-4.7-4.5c0-0.4-0.1-0.7-0.1-1.1
			c0-0.3,0-0.7,0-1c3.8-0.7,7.1,1.5,7.5,5c0.5,4-2.3,7.5-6.1,7.7c-0.9,0.1-1.9,0.1-2.8-0.1c-2.6-0.5-4.4-2.8-4.5-5.6
			c0-3.9,0-7.9,0-11.9c-3.7,0-7.4,0-11.3,0c1.5,3.2,4.2,3.2,7,3.4c0,4.7,0,9.4,0,14.1c-0.8,0-1.6,0-2.5,0c0-3.9,0-7.9,0-11.9
			c-3.3-0.6-6.2-1.8-7.1-5.5c-1.5,0.4-2.5,1.4-2.8,2.8c-0.3,1.2-0.3,2.4-0.1,3.6c0.1,0.6,0.9,1.2,1.5,1.4c0.6,0.1,1.7-0.1,1.9-0.6
			c0.7-1.6,1.9-1.2,3.2-1.1c0,2.4,0.4,4.7-0.6,7c-1.3,2.7-3.4,4.2-6.5,4.4c-2.4,0.1-4.6-0.1-6.5-1.9c-1.3-1.2-2.2-2.7-2.3-4.4
			c-0.1-2.6,0-5.2,0-7.8c0.8,0,1.7,0,2.6,0c0,2.1,0,4.1,0,6.1c0,4,2.1,5.9,6.1,5.7c2.6-0.2,4.4-2.2,4.3-4.9
			c-6.7,0.2-8.7-3.7-5.3-10.3c-3.8,0-7.5,0-11.4,0c0,5.8,0,11.6,0,17.5c-0.9,0-1.7,0-2.6,0c0-5.8,0-11.6,0-17.5
			C419.5,858.6,416.1,858.6,412.5,858.6z"/>
		<path d="M597.6,876.1c-1.1,0-1.8,0-2.7,0c0-2.4,0-4.7,0-7c0-3.3-2.3-5.5-5.6-5.4c-2.2,0.1-3.7,1.8-3.7,4.1c0,2.2,1.2,3.3,3.6,3.4
			c0.2,0,0.4,0,0.8,0.1c0,0.7,0,1.4,0,2.2c-3.2,0.7-6.4-1.2-6.9-4.2c-0.7-3.8,1.6-7.3,5.2-7.8c2.3-0.3,4.5,0.1,6.6,1.6
			c0-1.6,0-3,0-4.5c-8.8,0-17.6,0-26.4,0c0,3,0,6,0,9.3c1.3-1.3,2.7-2.3,3.8-3.6c0.9-1,2-1.1,3.2-0.8c2.1,0.5,3.7,2.2,3.8,4.4
			c0.1,2.7,0,5.4,0,8.2c-0.8,0-1.7,0-2.7,0c0-2.4,0-4.8,0-7.3c0-0.7-0.2-1.4-0.5-2c-0.7-1.2-1.5-1.3-2.5-0.3
			c-1.3,1.2-2.7,2.4-3.9,3.7c-1.1,1.2-2.3,1.4-3.9,1.1c0-4.2,0-8.3,0-12.5c-3-0.9-5.6,0.7-6,3.9c-0.3,2.4-0.3,4.9-0.2,7.3
			c0.1,2.1,1.5,3.3,3.4,3.9c0,0.7,0,1.4,0,2.1c-2.9,0-5.8-2.7-6.1-6c-0.2-2.3-0.2-4.6,0.1-6.8c0.2-1.6,0.9-3.1,1.4-4.6
			c-1.6,0-3.4,0-5.4,0c0,5.8,0,11.6,0,17.5c-0.9,0-1.7,0-2.7,0c0-0.8,0-1.6,0-2.3c0-1.9,0.1-3.9-0.2-5.8c-0.3-3.1-3.7-5.1-6.6-4.1
			c-1.8,0.6-2.8,2.4-2.6,4.4c0.3,1.9,1.4,2.8,3.6,2.9c0.2,0,0.4,0,0.8,0.1c0,0.7,0,1.4,0,2.2c-3.2,0.7-6.4-1.3-6.9-4.4
			c-0.7-3.8,1.7-7.2,5.3-7.6c2.3-0.3,4.5,0.1,6.6,1.7c0-1.6,0-3.1,0-4.6c-5.2,0-10.3,0-15.6,0c0,5.8,0,11.6,0,17.5
			c-0.9,0-1.7,0-2.6,0c0-0.4-0.1-0.9-0.1-1.4c0-2.7,0-5.3,0-8c0-1.9-1.1-3-2.8-2.9c-1.5,0.1-2.4,1.1-2.4,3c0,0.5,0,0.9,0,1.5
			c-0.9,0-1.7,0-2.7,0c0-0.6,0-1.1,0-1.7c0-1.6-0.6-2.4-1.7-2.7c-1.4-0.4-2.9,0.2-3.6,1.5c-0.9,1.8-0.4,4.6,1.2,5.4
			c0.8,0.4,1.9,0.4,3,0.7c0,0.6,0,1.3,0,2c-2.9,0.6-5.7-0.6-6.7-3.1c-0.9-2.1-0.9-6,1.5-7.7c2.2-1.7,5.2-1.7,7.7,0.1
			c2.8-1.6,3.2-1.6,6.4-1c0-1,0-2.1,0-3.2c-0.5,0-0.9-0.1-1.4-0.1c-5.1,0-10.1,0-15.1,0c-2.8,0-4.7,1.4-5,4.1
			c-0.3,2.4-0.3,4.9-0.2,7.3c0.1,1.5,0.8,2.8,2.2,3.3c1.6,0.6,1.3,1.6,1.2,2.8c-3.2-0.3-5.8-2.7-6-5.9c-0.2-2.6-0.2-5.2,0.2-7.7
			c0.6-4.1,3.5-6.4,7.7-6.4c27.7,0,55.3,0,83,0c0.6,0,1.1,0,1.8,0c0,0.8,0,1.5,0,2.3c-0.8,0.1-1.5,0.1-2.4,0.2
			C597.6,864.4,597.6,870.2,597.6,876.1z"/>
		<path d="M314.7,876.4c-1.5-0.3-2.8-0.3-3.9-0.8c-3.1-1.3-6.2-2.8-9.3-4.4c-0.4-0.2-0.7-0.8-0.8-1.2c-0.1-0.6-0.1-1.3,0-2
			c0-2.9,1.5-4.9,4.2-5.8c1.9-0.6,3.8-1.2,5.8-1.8c1.3-0.4,1.3-0.4,1.2-1.9c-4.9,0-9.8,0-14.8,0c0,5.8,0,11.6,0,17.5
			c-1,0-1.8,0-2.7,0c0-5.8,0-11.6,0-17.5c-0.8-0.1-1.6-0.1-2.3-0.2c0-0.8,0-1.4,0-2.2c0.8-0.1,1.5-0.1,2.3-0.2c0-0.5,0-0.9,0-1.3
			c0.1-3.6,3.1-6.7,6.7-6.6c3.8,0.2,7.7,0.7,11.6,1.1c-0.1,0.9-0.2,1.6-0.3,2.4c-2.4-0.3-4.7-0.6-6.9-0.8c-1.3-0.2-2.6-0.4-3.9-0.4
			c-3.1,0-4.9,2.5-4.3,5.7c18.3,0,36.7,0,55.1,0c0,0.8,0,1.6,0,2.3c-2.9,1-4.2,2.7-4.3,6c-0.1,1.2,0.1,2.4,0,3.7
			c-0.2,2.8,0.6,4.9,3.5,5.9c0,0.8,0,1.5,0,2.2c-3.1-0.2-5.8-2.7-6.1-6.1c-0.2-2.6-0.1-5.2,0.2-7.7c0.1-1.2,0.9-2.4,1.4-3.7
			c-1.7,0-3.4,0-5.3,0c0,5.8,0,11.6,0,17.5c-0.9,0-1.7,0-2.7,0c0-5.8,0-11.6,0-17.5c-8.2,0-16.2,0-24.4,0
			C314.7,864.4,314.7,870.2,314.7,876.4z M311.9,862.8c-0.3,0-0.3-0.1-0.4,0c-1.7,0.5-3.4,1-5.2,1.6c-2.4,0.7-3,1.6-3,4.1
			c0,0.8,0.2,1.2,0.9,1.5c2.3,1,4.5,2.1,6.8,3.2c0.2,0.1,0.5,0.2,0.8,0.2C311.9,869.7,311.9,866.3,311.9,862.8z"/>
		<path d="M237,862c1,0,1.7,0,2.6,0c0,2.2,0,4.5,0,6.7c0,2.2,1.2,4.2,3,4.8c2.2,0.6,4.5,0.8,6.4-1c1.3-1.2,1.6-2.7,1.3-4.5
			c-0.7,0.1-1.4,0.1-2.1,0.1c-2.7,0-4.6-1.8-4.7-4.6c0-1.6,0-3.2,0-5c-2.9,0-5.7,0-8.6,0c0-0.8,0-1.5,0-2.3c17.2,0,34.4,0,51.7,0
			c0,0.7,0,1.4,0,2.3c-3.1,0-6.2,0-9.3,0c0,0.6,0,1,0,1.7c0.7,0,1.5,0,2.2,0c3.6,0.2,6,3,5.6,6.5c-0.3,2.6-2.3,4.3-5,4.2
			c-0.2-1.1-0.5-2.1,1.1-2.7c1.1-0.4,1.5-1.8,1.2-3.2c-0.3-1.3-1.4-2.3-2.9-2.5c-0.7-0.1-1.5,0-2.3,0c0,4.6,0,9,0,13.9
			c-1.4-0.3-2.7-0.3-3.9-0.8c-3.1-1.3-6-2.8-9.1-4.2c-0.9-0.4-1.2-0.9-1.1-1.8c0.1-0.8,0-1.7,0.1-2.5c0.3-2.4,1.7-4.1,4-4.9
			c2-0.7,4-1.3,6-1.8c1-0.3,1.4-0.7,1.1-1.8c-4.9,0-9.8,0-14.8,0c0,5.8,0,11.6,0,17.5c-0.9,0-1.7,0-2.7,0c0-5.8,0-11.6,0-17.5
			c-3.6,0-7,0-10.6,0c0,1.9-0.1,3.9,0.1,5.8c0.1,1,1,1.4,2,1.4c1,0,1.7-0.4,2-1.4c0.1-0.4,0.1-0.8,0.2-1.3c0.8,0,1.7,0,2.8,0
			c-0.2,2.7-0.1,5.3-0.5,7.9c-0.6,3-3.6,5.1-6.7,5.1c-1.3,0-2.7,0-3.9-0.3c-3.1-0.7-5.3-3.6-5.3-6.7C236.9,866.8,237,864.5,237,862z
			 M274.5,873.4c0-3.7,0-7.2,0-10.9c-2.4,0.8-4.8,1.4-7.1,2.4c-1.6,0.7-1.5,2.3-1.5,3.8c0,1.2,1.1,1.1,1.7,1.5
			c0.8,0.5,1.7,0.8,2.6,1.3C271.6,872.1,273,872.7,274.5,873.4z"/>
		<path d="M356.7,862.4c2-0.1,4,0.1,5.2,2c0.5,0.9,0.8,2.1,0.7,3.1c-0.3,3.2-3.4,4.8-7.7,4.3c0-0.7,0-1.3,0-2.2c0.6,0,1.3,0.1,1.9,0
			c0.8-0.2,1.8-0.3,2.3-0.8c0.5-0.6,0.8-1.6,0.8-2.4c-0.1-1-1-1.5-2-1.5c-1.3,0-2.5,0-3.8,0c-0.3-3-0.2-5.8,2.4-7.6
			c3.2-2.1,6.5-1.5,9.8,0.4c0.1-0.5,0.1-0.9,0.2-1.5c7.5,0,15.1,0,22.7,0c0,0.7,0,1.4,0,2.2c-0.7,0.1-1.4,0.1-2.2,0.2
			c0,5.8,0,11.7,0,17.5c-1.6,0.2-2.8,0.1-4.2-0.6c-2.9-1.5-5.9-2.8-8.9-4.2c-0.7-0.3-1-0.7-0.9-1.5c0.1-0.9-0.1-1.8,0.1-2.8
			c0.3-2.5,1.7-4.1,4.1-4.8c2-0.7,4-1.3,6-1.8c1-0.3,1.4-0.7,1.1-1.8c-4.9,0-9.8,0-14.9,0c0,5.8,0,11.6,0,17.5c-1,0-1.8,0-2.8,0
			c0-0.4,0-0.9,0-1.4c0-3.6-0.1-7.1,0-10.7c0.1-3.3-2.3-6.4-7.1-5.4C357.5,858.9,356.5,860.6,356.7,862.4z M384,862.6
			c-2.4,0.8-4.8,1.4-7,2.4c-1.6,0.7-1.6,2.2-1.6,3.7c0,1.3,1.1,1.2,1.8,1.6c1.2,0.7,2.4,1.2,3.7,1.7c1,0.5,2,0.9,3.2,1.5
			C384,869.8,384,866.3,384,862.6z"/>
		<path d="M318.5,862.1c0.9,0,1.7,0,2.6,0c0,2.2,0,4.4,0,6.6c0,3.3,1.9,5.2,5.2,5.2c0.8,0,1.7,0.1,2.5-0.1c2.8-0.5,4.4-3.5,3.6-6.7
			c-2.8,1.8-4.5,2-6.2,0.7c-1.5-1.3-2.1-3.1-1.4-4.8c0.6-1.6,2.2-2.5,4.2-2.4c0.1,1,0.5,2.1-1,2.6c-0.9,0.3-1,1.7-0.3,2.4
			c0.7,0.8,1.5,0.9,2.3,0.3c0.5-0.4,1-0.9,1.4-1.4c1-1.4,2.4-1.4,3.8-1.1c0,2.4,0.2,4.7-0.1,7c-0.4,3.5-3.5,5.9-7,5.9
			c-0.9,0-1.8,0-2.6,0c-3.6,0-6.7-2.8-7-6.4c-0.2-2.2-0.1-4.4-0.1-6.6C318.5,862.9,318.5,862.5,318.5,862.1z"/>
	</g>
</g>
<circle cx="377.1" cy="876.2" r="1.6"/>
</svg>
