<?xml version="1.0" encoding="utf-8"?>
<!-- Generator: Adobe Illustrator 17.1.0, SVG Export Plug-In . SVG Version: 6.00 Build 0)  -->
<!DOCTYPE svg PUBLIC "-//W3C//DTD SVG 1.1//EN" "http://www.w3.org/Graphics/SVG/1.1/DTD/svg11.dtd">
<svg version="1.1" xmlns="http://www.w3.org/2000/svg" xmlns:xlink="http://www.w3.org/1999/xlink" x="0px" y="0px"
	 viewBox="0 0 459.4 363.3" enable-background="new 0 0 459.4 363.3" xml:space="preserve">
<g id="BACKGROUND">
</g>
<g id="OBJECTS">
	<g>
		<path fill="#EB725F" d="M69.3,215.5c-0.3-0.3-0.5-0.7-0.8-1c-2.9-3.9-6-7.6-9.2-11.2c0.1-7.2-0.1-34.4-7.4-33
			c-6.7,1.3,2.1,22.8,5.8,31.3c-1.4-1.5-2.9-3-4.4-4.4c-4.9-6.4-21.5-26.9-26.3-21.4c-4.5,5.2,15.2,16.5,23.8,21.2
			c1.6,1.5,3.2,3.1,4.7,4.7c-8.3-4.2-29.1-13.8-30.9-7.2c-2,7.1,25.1,8.6,32.5,8.9c3.8,4.1,7.4,8.5,10.8,13
			c-7.5-4.7-28.1-17.1-30.6-10.5c-2.7,7,24.9,11.1,31.8,12.1c3.6,5,7,10.2,10,15.6c-7.1-6-24.9-20.2-28.3-14.3
			c-3.6,6.4,22.3,14.3,29.4,16.4c0.5,0.9,1,1.8,1.5,2.7c2.4,4.6,4.7,9.3,6.7,14c-6.5-6.3-23.7-22.3-27.5-16.6
			c-4.1,6.2,21.5,16,28.3,18.4c3.1,7.3,5.7,14.7,7.8,22.3c-5.5-7.2-20.3-25.4-24.9-20.2c-4.9,5.6,19,18.8,25.5,22.2
			c0.1,0.3,0.2,0.6,0.3,1c0.7,2.6,1.3,5.2,1.8,7.9c0.2,1,1.8,0.8,1.6-0.2c-0.5-2.6-1-5.2-1.7-7.9c3.3-6.6,14.8-30.9,7.7-32.8
			c-6.5-1.7-8,20.6-8.4,30.2c-1.2-4.3-2.6-8.6-4.1-12.8c-1.1-3-2.2-6-3.4-8.9c2.3-6.8,10.4-32.8,3.1-33.7c-6.7-0.8-5,21.9-4.1,31.3
			c-2.4-5.5-5-11-7.9-16.3c1.8-6.9,8.1-33.5,0.7-33.9c-6.9-0.3-3.4,22.7-1.8,31.8c-3.1-5.6-6.6-11-10.3-16.3
			c0.8-7.5,3.2-34-4.1-33.3C60.1,185,66.3,206.2,69.3,215.5z"/>
		<path fill="#EB725F" d="M414.1,171.6c0.2-0.4,0.4-0.8,0.5-1.2c2-4.4,3.8-8.9,5.4-13.5c6.4-3.4,30.2-16.5,25.5-22.3
			c-4.4-5.3-19.1,12.7-24.7,20.1c0.6-2,1.3-4,1.8-5.9c3.3-7.4,13.4-31.7,6.2-33.3c-6.7-1.5-7.3,21.2-7.2,31
			c-0.6,2.1-1.2,4.3-1.9,6.4c-0.3-9.3-1.8-32.1-8.4-30.6c-7.2,1.6,4.4,26.2,7.7,32.8c-1.8,5.3-3.9,10.6-6.3,15.7
			c0.6-8.8,1.6-32.8-5.4-31.9c-7.4,0.9,2.1,27.2,4.6,33.7c-2.7,5.6-5.7,11-8.9,16.3c1.9-9.1,5.9-31.6-0.9-31.7
			c-7.4-0.1-1.9,26.4-0.3,33.7c-0.5,0.9-1.1,1.7-1.7,2.6c-2.9,4.3-5.9,8.5-9.1,12.6c2.5-8.7,8.3-31.5,1.4-32.1
			c-7.4-0.6-3.7,26.5-2.7,33.7c-4.9,6.2-10.2,12-15.9,17.5c3.7-8.3,12.6-30,5.9-31.5c-7.2-1.7-7.4,25.7-7.4,33
			c-0.2,0.2-0.5,0.5-0.7,0.7c-2,1.8-3.9,3.7-6,5.3c-0.8,0.6,0.2,1.9,1,1.3c2.1-1.7,4.1-3.4,6.1-5.3c7.3-0.3,34.2-1.8,32.5-8.9
			c-1.6-6.5-21.9,2.8-30.5,7c3.2-3.1,6.3-6.4,9.3-9.8c2.1-2.4,4.2-4.8,6.2-7.3c7-1.3,33.8-6.5,31.1-13.4c-2.5-6.3-21.7,6-29.5,11.4
			c3.7-4.7,7.3-9.6,10.5-14.7c6.9-1.7,33.3-8.9,30.1-15.6c-3-6.2-21.6,7.8-28.8,13.6c3.4-5.4,6.6-11,9.4-16.8
			c7-2.9,31.4-13.5,27.3-19.6C436.5,149.1,420.8,164.6,414.1,171.6z"/>
		<g>
			<g>
				<path fill="#6E7FDD" d="M122.3,192.5c0,0,2.6-5.6,4-12.9c-0.2-2.3-0.5-4.6-1-6.7c-0.4-1.9-0.8-3.7-1.3-5.5
					c-1.3,2.3-3,4.6-4.8,6.2c0,0,2.1-4.4,3.5-10.6c-1.4-4.2-3.2-8.1-5.3-11.8c-0.7,2.2-1.6,4.5-2.8,6.2c0,0,0.7-4,0.7-9.6
					c-0.4-0.6-0.8-1.3-1.2-1.9c-2.3-3.4-5-6.6-7.9-9.6c-0.2,2.5-0.7,5.2-1.6,7.3c0,0,0-4.3-1-9.9c-3-2.7-6.3-5.3-9.9-7.6
					c0.1,2.4,0,5-0.6,7.1c0,0-0.6-3.8-2.2-8.8c-3.2-1.9-6.7-3.5-10.5-5c0.4,2,0.7,4.1,0.6,5.9c0,0-1-2.9-3.1-6.8
					c-2.8-1-5.7-1.8-8.8-2.5c-3.2-0.7-6.6-1.3-10.5-1.5c-1.2,3.7-1.9,7.1-2.4,10.3c-0.5,3.2-0.8,6.2-0.8,9.1
					c2.9,3.3,5.3,5.3,5.3,5.3c-1.7-0.6-3.6-1.6-5.3-2.7c0,4.1,0.3,8,0.9,11.6c4.1,3.3,7.4,5.2,7.4,5.2c-2.2-0.2-4.6-1.1-6.8-2
					c0.9,4.2,2,8.2,3.5,11.9c4.9,3,8.9,4.5,8.9,4.5c-2.3,0.1-5-0.4-7.4-1.1c1.8,3.8,3.8,7.4,6.2,10.9c0.4,0.6,0.9,1.2,1.3,1.8
					c5.2,2,9.2,2.7,9.2,2.7c-2,0.5-4.5,0.5-6.8,0.4c2.7,3.3,5.7,6.4,9.1,9.2c6.3,0.9,11.1,0.5,11.1,0.5c-2.1,1.2-4.9,1.9-7.5,2.3
					c1.5,1.1,3.1,2.2,4.7,3.2C91,198.9,93,200,95,201c7.4,1.4,13.5,0.9,13.5,0.9c-1.8,1-4.2,1.7-6.5,2.1c0.7,0.2,1.3,0.5,2,0.7
					c2.8,1,5.8,1.8,9,2.5c3.2,0.7,6.5,1.3,10.5,1.5c1.2-3.7,1.9-7.1,2.3-10.3c0.5-3.2,0.7-6.3,0.8-9.3c0-0.7,0-1.4,0-2.1
					C125.4,189.2,123.9,191.2,122.3,192.5z"/>
				<g>
					<defs>
						<path id="SVGID_1_" d="M122.3,192.5c0,0,2.6-5.6,4-12.9c-0.2-2.3-0.5-4.6-1-6.7c-0.4-1.9-0.8-3.7-1.3-5.5
							c-1.3,2.3-3,4.6-4.8,6.2c0,0,2.1-4.4,3.5-10.6c-1.4-4.2-3.2-8.1-5.3-11.8c-0.7,2.2-1.6,4.5-2.8,6.2c0,0,0.7-4,0.7-9.6
							c-0.4-0.6-0.8-1.3-1.2-1.9c-2.3-3.4-5-6.6-7.9-9.6c-0.2,2.5-0.7,5.2-1.6,7.3c0,0,0-4.3-1-9.9c-3-2.7-6.3-5.3-9.9-7.6
							c0.1,2.4,0,5-0.6,7.1c0,0-0.6-3.8-2.2-8.8c-3.2-1.9-6.7-3.5-10.5-5c0.4,2,0.7,4.1,0.6,5.9c0,0-1-2.9-3.1-6.8
							c-2.8-1-5.7-1.8-8.8-2.5c-3.2-0.7-6.6-1.3-10.5-1.5c-1.2,3.7-1.9,7.1-2.4,10.3c-0.5,3.2-0.8,6.2-0.8,9.1
							c2.9,3.3,5.3,5.3,5.3,5.3c-1.7-0.6-3.6-1.6-5.3-2.7c0,4.1,0.3,8,0.9,11.6c4.1,3.3,7.4,5.2,7.4,5.2c-2.2-0.2-4.6-1.1-6.8-2
							c0.9,4.2,2,8.2,3.5,11.9c4.9,3,8.9,4.5,8.9,4.5c-2.3,0.1-5-0.4-7.4-1.1c1.8,3.8,3.8,7.4,6.2,10.9c0.4,0.6,0.9,1.2,1.3,1.8
							c5.2,2,9.2,2.7,9.2,2.7c-2,0.5-4.5,0.5-6.8,0.4c2.7,3.3,5.7,6.4,9.1,9.2c6.3,0.9,11.1,0.5,11.1,0.5c-2.1,1.2-4.9,1.9-7.5,2.3
							c1.5,1.1,3.1,2.2,4.7,3.2C91,198.9,93,200,95,201c7.4,1.4,13.5,0.9,13.5,0.9c-1.8,1-4.2,1.7-6.5,2.1c0.7,0.2,1.3,0.5,2,0.7
							c2.8,1,5.8,1.8,9,2.5c3.2,0.7,6.5,1.3,10.5,1.5c1.2-3.7,1.9-7.1,2.3-10.3c0.5-3.2,0.7-6.3,0.8-9.3c0-0.7,0-1.4,0-2.1
							C125.4,189.2,123.9,191.2,122.3,192.5z"/>
					</defs>
					<clipPath id="SVGID_2_">
						<use xlink:href="#SVGID_1_"  overflow="visible"/>
					</clipPath>
					<path clip-path="url(#SVGID_2_)" fill="#B3C9F9" d="M112.4,137.7l-1-0.1c0,0.2-0.9,17.9-12.7,34.4l-8.9-12.9
						c12.2-16.9,10.6-38.7,10.6-38.9l-1,0c0,0.2,1.5,21.3-10.3,37.9l-7.9-11.5c12.1-17,0.7-41.1,0.5-41.3l-0.9,0.4
						c0.1,0.2,11.2,23.4-0.3,40l-8.5-12.3c4.5-16.9-7.1-38.3-7.2-38.5l-0.9,0.5c0.1,0.2,11.1,20.5,7.3,36.9L54,107l-0.8,0.6
						l17.4,25.4c-16.6-2.3-31.6-19.8-31.8-20l-0.8,0.7c0.2,0.2,15.9,18.6,33.3,20.5l8.5,12.3c-19.5,4.8-37.2-13.9-37.4-14l-0.7,0.7
						c0.2,0.2,18.5,19.5,38.8,14.3l7.9,11.5c-19.7,5-38.9-3.9-39.1-4l-0.4,0.9c0.2,0.1,19.9,9.3,40.1,4l8.9,12.9
						c-19.7,5.1-36.5-0.4-36.7-0.5l-0.3,1c0.2,0.1,17.5,5.8,37.6,0.4l6.7,9.7c-19.6,5.2-34.2,3.1-34.3,3l-0.1,1
						c0.1,0,15.1,2.2,35.1-3.1l7.3,10.6c-16.5,4.3-28.6,2.6-28.8,2.5l-0.1,1c0.1,0,12.7,1.9,29.5-2.6l6.1,8.8
						c-10.3,2.8-17.9,1.7-18,1.7l-0.1,1c0.3,0,8,1.1,18.7-1.8l11.8,17.2l0.8-0.6l-11.8-17.2c6.6-8.9,8.3-16.5,8.4-16.8l-1-0.3
						c0,0.1-1.8,7.5-8.1,16.2l-6.1-8.8c10.2-14.1,13-26.5,13-26.6l-1-0.3c0,0.1-2.7,12.1-12.7,26l-7.3-10.6
						c12.2-16.8,15.5-31.5,15.5-31.6l-1-0.3c0,0.1-3.3,14.5-15.1,31l-6.7-9.7C111.5,156.2,112.4,137.9,112.4,137.7z"/>
				</g>
			</g>
			<path opacity="0.1" fill="#0046A0" d="M115.3,147.7c-0.4-0.6-0.8-1.3-1.2-1.9c-2.3-3.4-5-6.6-7.9-9.6c-0.2,2.5-0.7,5.2-1.6,7.3
				c0,0,0-4.3-1-9.9c-3-2.7-6.3-5.3-9.9-7.6c0.1,2.4,0,5-0.6,7.1c0,0-0.6-3.8-2.2-8.8c-3.2-1.9-6.7-3.5-10.5-5
				c0.4,2,0.7,4.1,0.6,5.9c0,0-1-2.9-3.1-6.8c-2.8-1-5.7-1.8-8.8-2.5c-3.2-0.7-6.6-1.3-10.5-1.5l64.9,94.4c1.2-3.7,1.9-7.1,2.3-10.3
				c0.5-3.2,0.7-6.3,0.8-9.3c0-0.7,0-1.4,0-2.1c-1.2,2-2.7,4-4.3,5.3c0,0,2.6-5.6,4-12.9c-0.2-2.3-0.5-4.6-1-6.7
				c-0.4-1.9-0.8-3.7-1.3-5.5c-1.3,2.3-3,4.6-4.8,6.2c0,0,2.1-4.4,3.5-10.6c-1.4-4.2-3.2-8.1-5.3-11.8c-0.7,2.2-1.6,4.5-2.8,6.2
				C114.5,157.3,115.3,153.2,115.3,147.7z"/>
		</g>
		<g>
			<g>
				<path fill="#6E7FDD" d="M394.3,279.8c0,0,6.2,0.4,13.5-1.1c2.1-1.1,4-2.2,5.9-3.4c1.6-1,3.2-2.1,4.7-3.3
					c-2.6-0.4-5.4-1.1-7.5-2.2c0,0,4.9,0.3,11.1-0.6c3.4-2.9,6.3-6,9-9.3c-2.3,0.2-4.8,0.2-6.8-0.3c0,0,4-0.8,9.2-2.8
					c0.4-0.6,0.9-1.2,1.3-1.8c2.3-3.4,4.3-7.1,6.1-10.9c-2.4,0.7-5.1,1.2-7.4,1.2c0,0,4-1.6,8.8-4.6c1.5-3.8,2.6-7.7,3.4-12
					c-2.2,1-4.7,1.8-6.8,2.1c0,0,3.3-1.9,7.4-5.2c0.6-3.7,0.8-7.6,0.8-11.6c-1.7,1.1-3.6,2.2-5.3,2.7c0,0,2.3-2,5.2-5.4
					c-0.1-2.9-0.4-5.9-0.9-9.1c-0.5-3.2-1.2-6.6-2.5-10.3c-3.9,0.2-7.3,0.8-10.5,1.6c-3.1,0.7-6.1,1.6-8.8,2.6c-2,3.9-3,6.9-3,6.9
					c-0.1-1.8,0.1-3.9,0.6-5.9c-3.8,1.5-7.3,3.2-10.5,5.1c-1.5,5-2.1,8.8-2.1,8.8c-0.6-2.1-0.7-4.7-0.6-7.1
					c-3.6,2.3-6.8,4.9-9.8,7.7c-1,5.7-1,9.9-1,9.9c-0.9-2.1-1.4-4.8-1.7-7.3c-2.9,3-5.5,6.3-7.8,9.7c-0.4,0.6-0.8,1.3-1.2,1.9
					c0.1,5.5,0.8,9.6,0.8,9.6c-1.2-1.7-2.1-4-2.8-6.2c-2.1,3.7-3.8,7.7-5.2,11.8c1.5,6.1,3.6,10.5,3.6,10.5
					c-1.9-1.5-3.6-3.9-4.9-6.1c-0.5,1.8-0.9,3.7-1.3,5.6c-0.4,2.2-0.7,4.4-0.9,6.7c1.4,7.4,4.1,12.9,4.1,12.9
					c-1.6-1.3-3.1-3.3-4.4-5.3c0,0.7,0,1.4,0,2.1c0.1,3,0.4,6,0.9,9.3c0.5,3.2,1.2,6.6,2.4,10.3c3.9-0.2,7.3-0.9,10.4-1.6
					c3.2-0.7,6.1-1.6,8.9-2.6c0.7-0.2,1.3-0.5,2-0.7C398.5,281.5,396.1,280.8,394.3,279.8z"/>
				<g>
					<defs>
						<path id="SVGID_3_" d="M394.3,279.8c0,0,6.2,0.4,13.5-1.1c2.1-1.1,4-2.2,5.9-3.4c1.6-1,3.2-2.1,4.7-3.3
							c-2.6-0.4-5.4-1.1-7.5-2.2c0,0,4.9,0.3,11.1-0.6c3.4-2.9,6.3-6,9-9.3c-2.3,0.2-4.8,0.2-6.8-0.3c0,0,4-0.8,9.2-2.8
							c0.4-0.6,0.9-1.2,1.3-1.8c2.3-3.4,4.3-7.1,6.1-10.9c-2.4,0.7-5.1,1.2-7.4,1.2c0,0,4-1.6,8.8-4.6c1.5-3.8,2.6-7.7,3.4-12
							c-2.2,1-4.7,1.8-6.8,2.1c0,0,3.3-1.9,7.4-5.2c0.6-3.7,0.8-7.6,0.8-11.6c-1.7,1.1-3.6,2.2-5.3,2.7c0,0,2.3-2,5.2-5.4
							c-0.1-2.9-0.4-5.9-0.9-9.1c-0.5-3.2-1.2-6.6-2.5-10.3c-3.9,0.2-7.3,0.8-10.5,1.6c-3.1,0.7-6.1,1.6-8.8,2.6c-2,3.9-3,6.9-3,6.9
							c-0.1-1.8,0.1-3.9,0.6-5.9c-3.8,1.5-7.3,3.2-10.5,5.1c-1.5,5-2.1,8.8-2.1,8.8c-0.6-2.1-0.7-4.7-0.6-7.1
							c-3.6,2.3-6.8,4.9-9.8,7.7c-1,5.7-1,9.9-1,9.9c-0.9-2.1-1.4-4.8-1.7-7.3c-2.9,3-5.5,6.3-7.8,9.7c-0.4,0.6-0.8,1.3-1.2,1.9
							c0.1,5.5,0.8,9.6,0.8,9.6c-1.2-1.7-2.1-4-2.8-6.2c-2.1,3.7-3.8,7.7-5.2,11.8c1.5,6.1,3.6,10.5,3.6,10.5
							c-1.9-1.5-3.6-3.9-4.9-6.1c-0.5,1.8-0.9,3.7-1.3,5.6c-0.4,2.2-0.7,4.4-0.9,6.7c1.4,7.4,4.1,12.9,4.1,12.9
							c-1.6-1.3-3.1-3.3-4.4-5.3c0,0.7,0,1.4,0,2.1c0.1,3,0.4,6,0.9,9.3c0.5,3.2,1.2,6.6,2.4,10.3c3.9-0.2,7.3-0.9,10.4-1.6
							c3.2-0.7,6.1-1.6,8.9-2.6c0.7-0.2,1.3-0.5,2-0.7C398.5,281.5,396.1,280.8,394.3,279.8z"/>
					</defs>
					<clipPath id="SVGID_4_">
						<use xlink:href="#SVGID_3_"  overflow="visible"/>
					</clipPath>
					<path clip-path="url(#SVGID_4_)" fill="#B3C9F9" d="M441.6,250.6l-0.3-1c-0.2,0.1-17,5.7-36.7,0.8l8.8-13
						c20.2,5.1,39.9-4.3,40.1-4.4l-0.4-0.9c-0.2,0.1-19.3,9.2-39,4.4l7.8-11.6c20.3,5,38.5-14.4,38.6-14.6l-0.7-0.7
						c-0.2,0.2-17.7,19-37.3,14.4l8.4-12.4c17.4-2.1,33-20.6,33.2-20.8l-0.8-0.7c-0.2,0.2-15,17.8-31.6,20.3l17.2-25.5l-0.8-0.6
						l-17.2,25.5c-3.9-16.3,6.9-36.7,7-36.9l-0.9-0.5c-0.1,0.2-11.5,21.7-6.9,38.5l-8.4,12.4c-11.6-16.4-0.7-39.7-0.6-39.9l-0.9-0.4
						c-0.1,0.2-11.4,24.4,0.9,41.3l-7.8,11.6c-11.9-16.5-10.6-37.6-10.6-37.8l-1,0c0,0.2-1.3,22,11,38.8l-8.8,13
						c-11.9-16.4-13-34.1-13-34.3l-1,0.1c0,0.2,1.1,18.4,13.4,35.1l-6.6,9.8c-12-16.4-15.4-30.7-15.4-30.8l-1,0.3
						c0,0.1,3.5,14.8,15.8,31.5l-7.2,10.7c-10.1-13.7-12.9-25.7-12.9-25.8l-1,0.3c0,0.1,2.9,12.5,13.3,26.5l-6,8.9
						c-6.3-8.6-8.2-16-8.2-16.1l-1,0.3c0.1,0.3,1.9,7.9,8.6,16.7l-11.7,17.3l0.8,0.6l11.7-17.3c10.7,2.8,18.4,1.7,18.7,1.7l-0.1-1
						c-0.1,0-7.7,1.1-18-1.6l6-8.9c16.9,4.3,29.4,2.4,29.5,2.4l-0.1-1c-0.1,0-12.3,1.9-28.8-2.3l7.2-10.7c20.1,5.2,35,2.9,35.1,2.8
						l-0.1-1c-0.1,0-14.7,2.3-34.4-2.7l6.6-9.8C424.1,256.5,441.4,250.6,441.6,250.6z"/>
				</g>
			</g>
			<path opacity="0.1" fill="#0046A0" d="M433.4,256.9c0.4-0.6,0.9-1.2,1.3-1.8c2.3-3.4,4.3-7.1,6.1-10.9c-2.4,0.7-5.1,1.2-7.4,1.2
				c0,0,4-1.6,8.8-4.6c1.5-3.8,2.6-7.7,3.4-12c-2.2,1-4.7,1.8-6.8,2.1c0,0,3.3-1.9,7.4-5.2c0.6-3.7,0.8-7.6,0.8-11.6
				c-1.7,1.1-3.6,2.2-5.3,2.7c0,0,2.3-2,5.2-5.4c-0.1-2.9-0.4-5.9-0.9-9.1c-0.5-3.2-1.2-6.6-2.5-10.3l-64.1,95
				c3.9-0.2,7.3-0.9,10.4-1.6c3.2-0.7,6.1-1.6,8.9-2.6c0.7-0.2,1.3-0.5,2-0.7c-2.3-0.4-4.7-1.1-6.5-2.1c0,0,6.2,0.4,13.5-1.1
				c2.1-1.1,4-2.2,5.9-3.4c1.6-1,3.2-2.1,4.7-3.3c-2.6-0.4-5.4-1.1-7.5-2.2c0,0,4.9,0.3,11.1-0.6c3.4-2.9,6.3-6,9-9.3
				c-2.3,0.2-4.8,0.2-6.8-0.3C424.2,259.7,428.2,258.9,433.4,256.9z"/>
		</g>
	</g>
	<ellipse fill="#EDF0FC" cx="229.7" cy="346.2" rx="229.7" ry="17.1"/>
	<g>
		<g>
			<rect x="108.6" y="75.7" fill="#F5F9FF" width="291.5" height="261.5"/>
			<rect x="108.6" y="75.7" fill="#D0DBF7" width="291.5" height="30.9"/>
		</g>
		<g>
			<circle fill="#EB725F" cx="126.2" cy="91.2" r="5.9"/>
			<circle fill="#F9AB43" cx="146.2" cy="91.2" r="5.9"/>
			<circle fill="#6E7FDD" cx="166.2" cy="91.2" r="5.9"/>
		</g>
	</g>
	<g>
		<g>
			<g>
				<path fill="#FFCF74" d="M357.4,195.9c1.4-3.5-0.6-6.4-4.4-6.4H212.7c-3.8,0-8.1,2.9-9.5,6.4l-31.1,78.9
					c-1.4,3.5,0.6,6.4,4.4,6.4h140.3c3.8,0,8.1-2.9,9.5-6.4L357.4,195.9z"/>
			</g>
			<path fill="#FFCF74" d="M165.4,268.1l31.1-78.9c1.4-3.5,5.7-6.4,9.5-6.4h110.1v-7c0-3.8-3.1-6.9-6.9-6.9h-49.1
				c-3.8,0-8.4-2.7-10.2-6.1l-6.7-12.3c-1.8-3.3-6.4-6.1-10.2-6.1h-63.1c-3.8,0-6.9,3.1-6.9,6.9v116.3c0,3.3,2.4,6.2,5.6,6.8
				C165.6,273.8,164.2,271.2,165.4,268.1z"/>
		</g>
		<path fill="#EB725F" d="M267.4,211.3c-14.4,0-26.2,11.7-26.2,26.2c0,14.4,11.7,26.2,26.2,26.2c14.4,0,26.2-11.7,26.2-26.2
			C293.5,223,281.8,211.3,267.4,211.3z M280.2,246.5l-3.8,3.8l-9-9l-9,9l-3.8-3.8l9-9l-9-9l3.8-3.8l9,9l9-9l3.8,3.8l-9,9
			L280.2,246.5z"/>
	</g>
	<g>
		<g>
			<g>
				<path fill="#EB725F" d="M180.2,338.1c0,6.8-30.9,12.4-75.9,12.4s-75.9-5.5-75.9-12.4s30.9-12.4,75.9-12.4
					S180.2,331.3,180.2,338.1z"/>
				<path fill="#FFCF74" d="M125.7,182.5h-21.3H83.1l-32.7,153c27.2,5.9,54.1,5.9,54.1,5.9s26.9,0,54.1-5.9L125.7,182.5z"/>
				<ellipse fill="#EB725F" cx="104.4" cy="182.5" rx="21.3" ry="3.2"/>
				<g>
					<defs>
						<path id="SVGID_5_" d="M125.7,182.5h-21.3H83.1l-32.7,153c27.2,5.9,54.1,5.9,54.1,5.9s26.9,0,54.1-5.9L125.7,182.5z"/>
					</defs>
					<clipPath id="SVGID_6_">
						<use xlink:href="#SVGID_5_"  overflow="visible"/>
					</clipPath>
					<g clip-path="url(#SVGID_6_)">
						<g>
							<path fill="#F9AB43" d="M103.5,328.7c-43.9,0-73.5-7.3-75.4-7.8l6.1-24l-3.1,12l3-12c0.6,0.2,63.9,15.7,141.1-0.1l5,24.3
								C152.1,326.8,125.9,328.7,103.5,328.7z"/>
						</g>
						<g>
							<path fill="#F9AB43" d="M103.5,274.7c-43.9,0-73.5-7.3-75.4-7.8l6.1-24l-3.1,12l3-12c0.6,0.2,63.9,15.7,141.1-0.1l5,24.3
								C152.1,272.8,125.9,274.7,103.5,274.7z"/>
						</g>
						<g>
							<path fill="#F9AB43" d="M103.5,220.8c-43.9,0-73.5-7.3-75.4-7.8l6.1-24l-3.1,12l3-12c0.6,0.2,63.9,15.7,141.1-0.1l5,24.3
								C152.1,218.8,125.9,220.8,103.5,220.8z"/>
						</g>
					</g>
				</g>
			</g>
			<path opacity="0.1" fill="#0046A0" d="M131,256.3c0,33.3-6.9,63.3-18,84.8c10.1-0.5,27.7-1.8,45.4-5.6l-32.7-153h-7.6
				C126.2,202.7,131,228.3,131,256.3z"/>
		</g>
		<g opacity="0.3">
			<path fill="#FFFFFF" d="M85.4,206.1c-0.8,3.8-1.6,7.5-2.3,11.3c-1.9,9-3.7,18.1-5.6,27.1c-2.3,11-4.6,22-6.8,32.9
				c-2,9.4-3.9,18.9-5.9,28.3c-0.9,4.6-2.1,9.2-2.9,13.8c0,0.1,0,0.1,0,0.2c-0.8,3.8,5.1,4.9,5.9,1.1c0.8-3.8,1.6-7.5,2.3-11.3
				c1.9-9,3.7-18.1,5.6-27.1c2.3-11,4.6-22,6.8-32.9c2-9.4,3.9-18.9,5.9-28.3c0.9-4.6,2.1-9.2,2.9-13.8c0-0.1,0-0.1,0-0.2
				C92,203.4,86.2,202.3,85.4,206.1L85.4,206.1z"/>
		</g>
	</g>
	<g>
		<g>
			<g>
				
					<rect x="241.4" y="316.1" transform="matrix(0.9616 -0.2745 0.2745 0.9616 -75.9276 98.7712)" fill="#F9AB43" width="147" height="9"/>
			</g>
			<g>
				
					<rect x="319.8" y="305.2" transform="matrix(0.9616 -0.2745 0.2745 0.9616 -71.436 108.9063)" fill="#EB725F" width="67.1" height="9"/>
			</g>
		</g>
		<g>
			<g>
				<circle fill="#EB725F" cx="385.6" cy="300.5" r="45.3"/>
				<circle fill="#D0DBF7" cx="385.6" cy="300.5" r="36.4"/>
			</g>
			<g>
				<path fill="#FFFFFF" d="M413,292.7l-4.3,1.2c-3.6-12.7-16.9-20.1-29.6-16.5l-1.2-4.3C392.9,268.8,408.7,277.6,413,292.7z"/>
			</g>
		</g>
	</g>
	<g>
		<g>
			<polygon fill="#E2E6FF" points="351.9,74.1 308.6,60.9 282.5,146.9 349.8,167.3 368.8,104.7 			"/>
			<polygon fill="#CAD2F9" points="347.5,108 344.4,102.2 330.5,109.7 323.1,95.8 317.3,98.9 324.8,112.8 310.9,120.2 314,126 
				327.8,118.6 335.3,132.4 341.1,129.3 333.6,115.5 			"/>
		</g>
		<g>
			<polygon fill="#E2E6FF" points="236.9,15.2 192.9,26 214.2,113.2 282.5,96.5 267,33 			"/>
			<polygon fill="#CAD2F9" points="250.4,46.7 244.8,43.3 236.6,56.7 223.2,48.6 219.8,54.2 233.2,62.3 225.1,75.8 230.7,79.2 
				238.8,65.8 252.3,73.9 255.7,68.3 242.2,60.2 			"/>
		</g>
	</g>
	<g>
		<polygon fill="#E2E6FF" points="391,23.1 379.9,23.1 379.9,11.9 375.9,11.9 375.9,23.1 364.7,23.1 364.7,27.1 375.9,27.1 
			375.9,38.3 379.9,38.3 379.9,27.1 391,27.1 		"/>
		<polygon fill="#E2E6FF" points="416.1,61.6 410,61.6 410,55.5 407.8,55.5 407.8,61.6 401.7,61.6 401.7,63.7 407.8,63.7 
			407.8,69.8 410,69.8 410,63.7 416.1,63.7 		"/>
		<polygon fill="#E2E6FF" points="348.9,50.9 341.5,50.9 341.5,43.6 338.9,43.6 338.9,50.9 331.5,50.9 331.5,53.6 338.9,53.6 
			338.9,60.9 341.5,60.9 341.5,53.6 348.9,53.6 		"/>
		<polygon fill="#E2E6FF" points="69.7,49.8 58.5,49.8 58.5,38.6 54.5,38.6 54.5,49.8 43.3,49.8 43.3,53.8 54.5,53.8 54.5,65 
			58.5,65 58.5,53.8 69.7,53.8 		"/>
		<polygon fill="#E2E6FF" points="118.5,43.1 112.4,43.1 112.4,37 110.2,37 110.2,43.1 104.1,43.1 104.1,45.3 110.2,45.3 
			110.2,51.4 112.4,51.4 112.4,45.3 118.5,45.3 		"/>
		<polygon fill="#E2E6FF" points="81.4,92.8 74,92.8 74,85.4 71.4,85.4 71.4,92.8 64,92.8 64,95.4 71.4,95.4 71.4,102.8 74,102.8 
			74,95.4 81.4,95.4 		"/>
	</g>
	<g>
		<circle fill="#CAD2F9" cx="323.8" cy="4.6" r="2.4"/>
		<circle fill="#CAD2F9" cx="431.1" cy="91.7" r="4.6"/>
		<circle fill="#CAD2F9" cx="288" cy="29.9" r="2.4"/>
		<circle fill="#CAD2F9" cx="147.8" cy="4.6" r="4.6"/>
		<circle fill="#CAD2F9" cx="167.8" cy="53.3" r="2.4"/>
		<circle fill="#CAD2F9" cx="26.2" cy="100.2" r="2.4"/>
	</g>
</g>
</svg>
