<svg width="35" height="26" viewBox="0 0 35 26" fill="none" xmlns="http://www.w3.org/2000/svg">
<path d="M4.6913 25.3674L32.7787 20.8754C33.5798 20.7473 34.1272 19.9914 33.9991 19.1903L33.4862 15.983C33.4434 15.7155 33.1919 15.5334 32.9245 15.5762C31.2738 15.8402 29.7159 14.7121 29.4519 13.0614C29.1874 11.4074 30.3153 9.8469 31.966 9.58291C32.2334 9.54014 32.4156 9.28863 32.3728 9.02119L31.8608 5.8198C31.7699 5.25156 31.3609 4.81653 30.8462 4.65413L29.5287 1.03054C29.4842 0.908169 29.3931 0.808521 29.2749 0.753692C29.157 0.698588 29.0219 0.692546 28.8998 0.737293L9.04885 7.97813L2.08828 9.09132C1.28716 9.21944 0.73971 9.97534 0.867832 10.7765L1.37983 13.9779C1.4226 14.2453 1.67411 14.4274 1.94154 14.3847C3.59225 14.1207 5.15031 15.2516 5.41483 16.9056C5.67883 18.5563 4.55074 20.1139 2.90004 20.3779C2.6326 20.4207 2.45045 20.6722 2.49322 20.9396L3.00616 24.1469C3.13428 24.9481 3.89018 25.4955 4.6913 25.3674ZM28.7746 1.82702L29.8042 4.65875L14.1463 7.1629L28.7746 1.82702ZM3.53451 21.2397C5.45336 20.6872 6.70654 18.7715 6.38336 16.7507C6.05969 14.7269 4.27114 13.295 2.27564 13.3683L1.83636 10.6216C1.79367 10.3546 1.97622 10.1026 2.24318 10.0599L7.24804 9.25944L7.46529 10.6179C7.50807 10.8853 7.75957 11.0675 8.02701 11.0247C8.29444 10.9819 8.4766 10.7304 8.43382 10.463L8.21657 9.10454L9.2258 8.94314C9.23019 8.94256 9.23428 8.94421 9.23868 8.9435L30.3426 5.56838C30.6049 5.53315 30.8502 5.71188 30.8923 5.9747L31.3315 8.72139C29.4125 9.2742 28.1597 11.1925 28.4834 13.2163C28.8066 15.2371 30.5947 16.6663 32.5904 16.5928L33.0306 19.3452C33.0733 19.6121 32.8907 19.8642 32.6238 19.9069L10.5098 23.4436L10.2926 22.0853C10.2498 21.8179 9.9983 21.6358 9.73086 21.6785C9.46343 21.7213 9.28127 21.9728 9.32404 22.2402L9.54126 23.5985L4.5364 24.3989C4.26944 24.4416 4.01739 24.259 3.97469 23.9921L3.53451 21.2397Z" fill="#FF6060"/>
<path d="M12.2099 12.8632L21.7353 11.3399C22.0027 11.2971 22.1849 11.0456 22.1421 10.7781C22.0994 10.5107 21.8479 10.3286 21.5804 10.3713L12.055 11.8947C11.7875 11.9375 11.6054 12.189 11.6481 12.4564C11.6909 12.7239 11.9424 12.906 12.2099 12.8632Z" fill="#FF6060"/>
<path d="M12.7482 16.2295L22.2737 14.7061C22.5411 14.6633 22.7233 14.4118 22.6805 14.1443C22.6377 13.8769 22.3862 13.6948 22.1188 13.7375L12.5933 15.2609C12.3259 15.3037 12.1437 15.5552 12.1865 15.8226C12.2293 16.0901 12.4808 16.2722 12.7482 16.2295Z" fill="#FF6060"/>
<path d="M13.2866 19.5957L18.4943 18.7628C18.7617 18.72 18.9439 18.4685 18.9011 18.2011C18.8584 17.9337 18.6068 17.7515 18.3394 17.7943L13.1317 18.6271C12.8642 18.6699 12.6821 18.9214 12.7249 19.1889C12.7676 19.4563 13.0191 19.6384 13.2866 19.5957Z" fill="#FF6060"/>
<path d="M8.56536 14.3909C8.8328 14.3481 9.01495 14.0966 8.97218 13.8292L8.67748 11.9865C8.63471 11.7191 8.3832 11.5369 8.11576 11.5797C7.84833 11.6224 7.66618 11.874 7.70895 12.1414L8.00365 13.9841C8.04642 14.2515 8.29793 14.4337 8.56536 14.3909Z" fill="#FF6060"/>
<path d="M9.10371 17.7571C9.37115 17.7143 9.5533 17.4628 9.51053 17.1954L9.21587 15.3529C9.1731 15.0855 8.92159 14.9033 8.65415 14.9461C8.38672 14.9889 8.20457 15.2404 8.24734 15.5078L8.542 17.3503C8.58477 17.6177 8.83628 17.7999 9.10371 17.7571Z" fill="#FF6060"/>
<path d="M9.64207 21.1233C9.9095 21.0806 10.0917 20.8291 10.0489 20.5616L9.75422 18.7191C9.71145 18.4517 9.45994 18.2695 9.19251 18.3123C8.92507 18.3551 8.74292 18.6066 8.78569 18.874L9.08036 20.7165C9.12313 20.9839 9.37463 21.1661 9.64207 21.1233Z" fill="#FF6060"/>
</svg>
