<svg width="36" height="29" viewBox="0 0 36 29" fill="none" xmlns="http://www.w3.org/2000/svg">
<path d="M5.6913 25.3674L33.7787 20.8754C34.5798 20.7473 35.1272 19.9914 34.9991 19.1903L34.4862 15.983C34.4434 15.7155 34.1919 15.5334 33.9245 15.5762C32.2738 15.8402 30.7159 14.7121 30.4519 13.0614C30.1874 11.4074 31.3153 9.8469 32.966 9.58291C33.2334 9.54014 33.4156 9.28863 33.3728 9.02119L32.8608 5.8198C32.7699 5.25156 32.3609 4.81653 31.8462 4.65413L30.5287 1.03054C30.4842 0.908169 30.3931 0.808521 30.2749 0.753692C30.157 0.698588 30.0219 0.692546 29.8998 0.737293L10.0489 7.97813L3.08828 9.09132C2.28716 9.21944 1.73971 9.97534 1.86783 10.7765L2.37983 13.9779C2.4226 14.2453 2.67411 14.4274 2.94154 14.3847C4.59225 14.1207 6.15031 15.2516 6.41483 16.9056C6.67883 18.5563 5.55074 20.1139 3.90004 20.3779C3.6326 20.4207 3.45045 20.6722 3.49322 20.9396L4.00616 24.1469C4.13428 24.9481 4.89018 25.4955 5.6913 25.3674ZM29.7746 1.82702L30.8042 4.65875L15.1463 7.1629L29.7746 1.82702ZM4.53451 21.2397C6.45336 20.6872 7.70654 18.7715 7.38336 16.7507C7.05969 14.7269 5.27114 13.295 3.27564 13.3683L2.83636 10.6216C2.79367 10.3546 2.97622 10.1026 3.24318 10.0599L8.24804 9.25944L8.46529 10.6179C8.50807 10.8853 8.75957 11.0675 9.02701 11.0247C9.29444 10.9819 9.4766 10.7304 9.43382 10.463L9.21657 9.10454L10.2258 8.94314C10.2302 8.94256 10.2343 8.94421 10.2387 8.9435L31.3426 5.56838C31.6049 5.53315 31.8502 5.71188 31.8923 5.9747L32.3315 8.72139C30.4125 9.2742 29.1597 11.1925 29.4834 13.2163C29.8066 15.2371 31.5947 16.6663 33.5904 16.5928L34.0306 19.3452C34.0733 19.6121 33.8907 19.8642 33.6238 19.9069L11.5098 23.4436L11.2926 22.0853C11.2498 21.8179 10.9983 21.6358 10.7309 21.6785C10.4634 21.7213 10.2813 21.9728 10.324 22.2402L10.5413 23.5985L5.5364 24.3989C5.26944 24.4416 5.01739 24.259 4.97469 23.9921L4.53451 21.2397Z" fill="#FF6060"/>
<path d="M13.2099 12.8632L22.7353 11.3399C23.0027 11.2971 23.1849 11.0456 23.1421 10.7781C23.0994 10.5107 22.8479 10.3286 22.5804 10.3713L13.055 11.8947C12.7875 11.9375 12.6054 12.189 12.6481 12.4564C12.6909 12.7239 12.9424 12.906 13.2099 12.8632Z" fill="#FF6060"/>
<path d="M13.7482 16.2295L23.2737 14.7061C23.5411 14.6633 23.7233 14.4118 23.6805 14.1443C23.6377 13.8769 23.3862 13.6948 23.1188 13.7375L13.5933 15.2609C13.3259 15.3037 13.1437 15.5552 13.1865 15.8226C13.2293 16.0901 13.4808 16.2722 13.7482 16.2295Z" fill="#FF6060"/>
<path d="M14.2866 19.5957L19.4943 18.7628C19.7617 18.72 19.9439 18.4685 19.9011 18.2011C19.8584 17.9337 19.6068 17.7515 19.3394 17.7943L14.1317 18.6271C13.8642 18.6699 13.6821 18.9214 13.7249 19.1889C13.7676 19.4563 14.0191 19.6384 14.2866 19.5957Z" fill="#FF6060"/>
<path d="M9.56536 14.3909C9.8328 14.3481 10.0149 14.0966 9.97218 13.8292L9.67748 11.9865C9.63471 11.7191 9.3832 11.5369 9.11576 11.5797C8.84833 11.6224 8.66618 11.874 8.70895 12.1414L9.00365 13.9841C9.04642 14.2515 9.29793 14.4337 9.56536 14.3909Z" fill="#FF6060"/>
<path d="M10.1037 17.7571C10.3712 17.7143 10.5533 17.4628 10.5105 17.1954L10.2159 15.3529C10.1731 15.0855 9.92159 14.9033 9.65415 14.9461C9.38672 14.9889 9.20457 15.2404 9.24734 15.5078L9.542 17.3503C9.58477 17.6177 9.83628 17.7999 10.1037 17.7571Z" fill="#FF6060"/>
<path d="M10.6421 21.1233C10.9095 21.0806 11.0917 20.8291 11.0489 20.5616L10.7542 18.7191C10.7115 18.4517 10.4599 18.2695 10.1925 18.3123C9.92507 18.3551 9.74292 18.6066 9.78569 18.874L10.0804 20.7165C10.1231 20.9839 10.3746 21.1661 10.6421 21.1233Z" fill="#FF6060"/>
<circle cx="9" cy="20" r="8.928" fill="#FF6060" stroke="#323991" stroke-width="0.144"/>
<path d="M14.6859 16.2737C14.8791 16.4564 14.9918 16.7082 14.9993 16.974C15.0069 17.2397 14.9085 17.4976 14.726 17.6908L9.04429 23.7068C8.9522 23.8041 8.84155 23.882 8.71885 23.9358C8.59616 23.9897 8.46392 24.0184 8.32995 24.0202C8.19598 24.0221 8.06299 23.9971 7.93885 23.9467C7.8147 23.8963 7.70191 23.8215 7.60715 23.7268L4.59918 20.7189C4.42207 20.5288 4.32565 20.2774 4.33023 20.0176C4.33482 19.7579 4.44005 19.51 4.62375 19.3263C4.80745 19.1426 5.05529 19.0374 5.31505 19.0328C5.5748 19.0282 5.8262 19.1247 6.01627 19.3018L8.29564 21.5798L13.2688 16.3139C13.4514 16.1207 13.7033 16.0079 13.9691 16.0004C14.2348 15.9929 14.4926 16.0912 14.6859 16.2737Z" fill="white"/>
</svg>
