<svg width="36" height="29" viewBox="0 0 36 29" fill="none" xmlns="http://www.w3.org/2000/svg">
<path d="M5.6913 25.3674L33.7787 20.8754C34.5798 20.7473 35.1272 19.9914 34.9991 19.1903L34.4862 15.983C34.4434 15.7155 34.1919 15.5334 33.9245 15.5762C32.2738 15.8402 30.7159 14.7121 30.4519 13.0614C30.1874 11.4074 31.3153 9.8469 32.966 9.58291C33.2334 9.54014 33.4156 9.28863 33.3728 9.02119L32.8608 5.8198C32.7699 5.25156 32.3609 4.81653 31.8462 4.65413L30.5287 1.03054C30.4842 0.908169 30.3931 0.808521 30.2749 0.753692C30.157 0.698588 30.0219 0.692546 29.8998 0.737293L10.0489 7.97813L3.08828 9.09132C2.28716 9.21944 1.73971 9.97534 1.86783 10.7765L2.37983 13.9779C2.4226 14.2453 2.67411 14.4274 2.94154 14.3847C4.59225 14.1207 6.15031 15.2516 6.41483 16.9056C6.67883 18.5563 5.55074 20.1139 3.90004 20.3779C3.6326 20.4207 3.45045 20.6722 3.49322 20.9396L4.00616 24.1469C4.13428 24.9481 4.89018 25.4955 5.6913 25.3674ZM29.7746 1.82702L30.8042 4.65875L15.1463 7.1629L29.7746 1.82702ZM4.53451 21.2397C6.45336 20.6872 7.70654 18.7715 7.38336 16.7507C7.05969 14.7269 5.27114 13.295 3.27564 13.3683L2.83636 10.6216C2.79367 10.3546 2.97622 10.1026 3.24318 10.0599L8.24804 9.25944L8.46529 10.6179C8.50807 10.8853 8.75957 11.0675 9.02701 11.0247C9.29444 10.9819 9.4766 10.7304 9.43382 10.463L9.21657 9.10454L10.2258 8.94314C10.2302 8.94256 10.2343 8.94421 10.2387 8.9435L31.3426 5.56838C31.6049 5.53315 31.8502 5.71188 31.8923 5.9747L32.3315 8.72139C30.4125 9.2742 29.1597 11.1925 29.4834 13.2163C29.8066 15.2371 31.5947 16.6663 33.5904 16.5928L34.0306 19.3452C34.0733 19.6121 33.8907 19.8642 33.6238 19.9069L11.5098 23.4436L11.2926 22.0853C11.2498 21.8179 10.9983 21.6358 10.7309 21.6785C10.4634 21.7213 10.2813 21.9728 10.324 22.2402L10.5413 23.5985L5.5364 24.3989C5.26944 24.4416 5.01739 24.259 4.97469 23.9921L4.53451 21.2397Z" fill="#FF6060"/>
<path d="M13.2099 12.8632L22.7353 11.3399C23.0027 11.2971 23.1849 11.0456 23.1421 10.7781C23.0994 10.5107 22.8479 10.3286 22.5804 10.3713L13.055 11.8947C12.7875 11.9375 12.6054 12.189 12.6481 12.4564C12.6909 12.7239 12.9424 12.906 13.2099 12.8632Z" fill="#FF6060"/>
<path d="M13.7482 16.2295L23.2737 14.7061C23.5411 14.6633 23.7233 14.4118 23.6805 14.1443C23.6377 13.8769 23.3862 13.6948 23.1188 13.7375L13.5933 15.2609C13.3259 15.3037 13.1437 15.5552 13.1865 15.8226C13.2293 16.0901 13.4808 16.2722 13.7482 16.2295Z" fill="#FF6060"/>
<path d="M14.2866 19.5957L19.4943 18.7628C19.7617 18.72 19.9439 18.4685 19.9011 18.2011C19.8584 17.9337 19.6068 17.7515 19.3394 17.7943L14.1317 18.6271C13.8642 18.6699 13.6821 18.9214 13.7249 19.1889C13.7676 19.4563 14.0191 19.6384 14.2866 19.5957Z" fill="#FF6060"/>
<path d="M9.56536 14.3909C9.8328 14.3481 10.0149 14.0966 9.97218 13.8292L9.67748 11.9865C9.63471 11.7191 9.3832 11.5369 9.11576 11.5797C8.84833 11.6224 8.66618 11.874 8.70895 12.1414L9.00365 13.9841C9.04642 14.2515 9.29793 14.4337 9.56536 14.3909Z" fill="#FF6060"/>
<path d="M10.1037 17.7571C10.3712 17.7143 10.5533 17.4628 10.5105 17.1954L10.2159 15.3529C10.1731 15.0855 9.92159 14.9033 9.65415 14.9461C9.38672 14.9889 9.20457 15.2404 9.24734 15.5078L9.542 17.3503C9.58477 17.6177 9.83628 17.7999 10.1037 17.7571Z" fill="#FF6060"/>
<path d="M10.6421 21.1233C10.9095 21.0806 11.0917 20.8291 11.0489 20.5616L10.7542 18.7191C10.7115 18.4517 10.4599 18.2695 10.1925 18.3123C9.92507 18.3551 9.74292 18.6066 9.78569 18.874L10.0804 20.7165C10.1231 20.9839 10.3746 21.1661 10.6421 21.1233Z" fill="#FF6060"/>
<circle cx="9" cy="20" r="8.928" fill="#FF6060" stroke="#323991" stroke-width="0.144"/>
<path d="M7.45744 15.525C8.10388 15.1927 8.82162 15.0231 9.54843 15.0309C10.2752 15.0387 10.9892 15.2236 11.6283 15.5697C12.2675 15.9158 12.8126 16.4126 13.2163 17.017C13.6201 17.6214 13.8704 18.3151 13.9454 19.0381C13.9517 19.106 13.9714 19.1719 14.0034 19.2321C14.0353 19.2922 14.0789 19.3455 14.1316 19.3887C14.1842 19.432 14.2449 19.4644 14.3102 19.484C14.3754 19.5036 14.4439 19.5101 14.5117 19.5031C14.5795 19.4962 14.6452 19.4758 14.7051 19.4432C14.7649 19.4107 14.8178 19.3666 14.8605 19.3135C14.9032 19.2604 14.935 19.1994 14.954 19.1339C14.973 19.0685 14.9788 18.9999 14.9711 18.9322C14.8574 17.8364 14.4172 16.8 13.7075 15.9572C12.9978 15.1145 12.0515 14.5044 10.9909 14.2058C9.93044 13.9072 8.80472 13.9341 7.75964 14.2828C6.71456 14.6315 5.79829 15.2861 5.12956 16.1616L4.29356 15.3256C4.26952 15.3015 4.23887 15.2851 4.20549 15.2784C4.17211 15.2718 4.1375 15.2752 4.10606 15.2882C4.07462 15.3013 4.04775 15.3233 4.02887 15.3517C4.00999 15.38 3.99994 15.4133 4 15.4473V17.9539C4 17.9995 4.01811 18.0432 4.05034 18.0755C4.08257 18.1077 4.12629 18.1258 4.17188 18.1258H6.6785C6.71254 18.1259 6.74583 18.1158 6.77415 18.0969C6.80247 18.0781 6.82455 18.0512 6.83758 18.0197C6.85062 17.9883 6.85402 17.9537 6.84736 17.9203C6.84071 17.8869 6.82429 17.8563 6.80019 17.8322L5.86656 16.8986C6.2801 16.3208 6.82548 15.8499 7.45744 15.525ZM4.86763 19.617C4.78855 19.5525 4.69212 19.5129 4.59055 19.5033C4.48898 19.4937 4.38683 19.5144 4.29703 19.5628C4.20723 19.6112 4.13381 19.6852 4.08608 19.7754C4.03835 19.8656 4.01844 19.9679 4.02888 20.0694C4.14293 21.165 4.58333 22.2012 5.29302 23.0437C6.00272 23.8862 6.94902 24.4962 8.00937 24.7947C9.06972 25.0932 10.1953 25.0665 11.2403 24.718C12.2853 24.3694 13.2015 23.7152 13.8704 22.84L14.7064 23.676C14.7305 23.7001 14.7611 23.7165 14.7945 23.7232C14.8279 23.7298 14.8625 23.7264 14.8939 23.7134C14.9254 23.7003 14.9522 23.6783 14.9711 23.6499C14.99 23.6216 15.0001 23.5883 15 23.5543V21.0477C15 21.0021 14.9819 20.9584 14.9497 20.9261C14.9174 20.8939 14.8737 20.8758 14.8281 20.8758H12.3215C12.2875 20.8757 12.2542 20.8858 12.2259 20.9047C12.1975 20.9235 12.1755 20.9504 12.1624 20.9819C12.1494 21.0133 12.146 21.0479 12.1526 21.0813C12.1593 21.1147 12.1757 21.1453 12.1998 21.1694L13.1334 22.103C12.6055 22.8401 11.8658 23.3993 11.0125 23.7062C10.1593 24.013 9.23292 24.0531 8.35637 23.8212C7.47981 23.5892 6.69455 23.0961 6.10483 22.4073C5.51512 21.7185 5.14884 20.8667 5.05463 19.9649C5.04785 19.8974 5.02784 19.832 4.99575 19.7723C4.96367 19.7126 4.92013 19.6598 4.86763 19.617Z" fill="white"/>
<path d="M10.2287 20.2295C10.1343 20.3308 10.0204 20.4121 9.89391 20.4684C9.76741 20.5248 9.63085 20.5551 9.49238 20.5576C9.35392 20.56 9.21638 20.5345 9.08797 20.4827C8.95956 20.4308 8.84291 20.3536 8.74499 20.2557C8.64706 20.1577 8.56986 20.0411 8.518 19.9127C8.46613 19.7843 8.44066 19.6467 8.4431 19.5083C8.44555 19.3698 8.47585 19.2333 8.53222 19.1068C8.58858 18.9803 8.66985 18.8664 8.77117 18.772C8.96666 18.5898 9.22522 18.4907 9.49238 18.4954C9.75955 18.5001 10.0145 18.6083 10.2034 18.7973C10.3923 18.9862 10.5006 19.2411 10.5053 19.5083C10.51 19.7754 10.4108 20.034 10.2287 20.2295Z" fill="white"/>
</svg>
